<?xml version="1.0" encoding="utf-8"?>
<!-- Generator: Adobe Illustrator 25.0.1, SVG Export Plug-In . SVG Version: 6.00 Build 0)  -->
<svg version="1.1" id="Layer_1" xmlns="http://www.w3.org/2000/svg" xmlns:xlink="http://www.w3.org/1999/xlink" x="0px" y="0px"
	 viewBox="0 0 119.7 119.7" style="enable-background:new 0 0 119.7 119.7;" xml:space="preserve">
<path d="M69.9,59.1c-5.1,0-9.3-4.1-9.3-9.3c0,0,0,0,0,0V0h-1.5v49.8c0,5.1-4.1,9.3-9.3,9.3c0,0,0,0,0,0H0v1.5h49.8
	c5.1,0,9.3,4.1,9.3,9.3c0,0,0,0,0,0v49.8h1.5V69.9c0-5.1,4.1-9.3,9.3-9.3c0,0,0,0,0,0h49.8v-1.5H69.9z"/>
</svg>
