<?xml version="1.0" encoding="utf-8"?>
<!-- Generator: Adobe Illustrator 25.0.1, SVG Export Plug-In . SVG Version: 6.00 Build 0)  -->
<svg version="1.1" id="Layer_1" xmlns="http://www.w3.org/2000/svg" xmlns:xlink="http://www.w3.org/1999/xlink" x="0px" y="0px"
	 viewBox="0 0 370.5 216.8" style="enable-background:new 0 0 370.5 216.8;" xml:space="preserve">
<style type="text/css">
	.st0{fill:#FFFFFF;}
	.st1{clip-path:url(#SVGID_2_);}
	.st2{fill:none;stroke:#000000;stroke-width:2.01;}
	.st3{clip-path:url(#SVGID_4_);}
	.st4{clip-path:url(#SVGID_6_);}
	.st5{clip-path:url(#SVGID_8_);}
	.st6{clip-path:url(#SVGID_10_);}
	.st7{clip-path:url(#SVGID_12_);}
	.st8{clip-path:url(#SVGID_14_);}
	.st9{clip-path:url(#SVGID_16_);}
	.st10{clip-path:url(#SVGID_18_);}
	.st11{clip-path:url(#SVGID_20_);}
</style>
<path d="M69.8,59.1c-5.1,0-9.3-4.1-9.3-9.3c0,0,0,0,0,0V0H59v49.8c0,5.1-4.1,9.3-9.3,9.3c0,0,0,0,0,0H0v1.5h49.8
	c5.1,0,9.3,4.1,9.3,9.3c0,0,0,0,0,0v49.8h1.5V69.9c0-5.1,4.1-9.3,9.3-9.3c0,0,0,0,0,0h49.8v-1.5H69.8z"/>
<path d="M367.5,117.4h-16c8.1-16,13.4-33.2,13.1-51c-0.3-11.4-4.2-23.2-12.8-31c-9.4-8.7-23.3-10.6-35.4-8.9
	c-16.5,2.6-32.1,9.4-46.5,18.3v-25H268v26.1c-14.5,9.2-27.7,20.6-39.5,32.1c11.8-11.7,25.1-21.9,39.5-30.3v69.7h-69.7
	c8.4-14.3,18.5-27.5,30.2-39.3c-11.5,11.7-22.8,24.9-32,39.3h-26v1.9h24.9c-9,14.4-15.8,30.1-18.4,46.6c-1.8,12.1,0.2,26,8.8,35.5
	c9,9.9,22.9,13.4,35.8,12.8c16.2-1,31.9-5.8,46.5-13.2v15.8h1.9v-16.7c22.5-11.7,42.5-29.3,58.2-47.6c8.6-10.3,16.1-21.4,22.4-33.2
	h16.9V117.4z M323,32.5c13.7,1,25.4,8.4,27.8,22.6c2.9,20.2-7.1,42.6-20.4,62.3h-59.2l40.4-40.5l-1.3-1.3l-40.4,40.5V46.7
	C286.6,37.5,304.8,31.6,323,32.5z M205.7,200.2c-14.1-2.4-21.5-14.2-22.5-27.8c-0.9-18.2,5-36.5,14.3-53.2h69.4l-40.4,40.5l1.3,1.3
	l40.4-40.5v59.2C248.4,193,225.9,203,205.7,200.2L205.7,200.2z M302.2,151.5c-9.9,9.9-20.7,18.9-32.2,26.9v-59.2h59.2
	C321.1,130.7,312.1,141.5,302.2,151.5z"/>
<path d="M77.1,97.2l8.5,13.6c1,1.6,2.7,2.6,4.6,2.6l-8.5-13.6C79.8,99.7,78.1,98.7,77.1,97.2z M81.7,99.7l8.5,13.6h48.9l-8.5-13.6
	H81.7z M130.7,99.7l8.5,13.6V106l-8.5-13.6V99.7z M84,92.4l8.5,13.6V91.1L84,77.5V92.4z M84,77.6l8.5,13.6h46.6l-8.5-13.6H84z
	 M130.7,77.6l8.5,13.6v-7.3l-8.5-13.6V77.6z M76.3,94.2c0,1.1,0.3,2.1,0.8,3c1,1.6,2.7,2.6,4.6,2.6h48.9v-7.3H84V77.6h46.6v-7.3
	H81.7c-3,0-5.5,2.5-5.5,5.5c0,0,0,0.1,0,0.1C76.2,75.9,76.3,94.2,76.3,94.2z M142.4,81.2l8.5,13.6V83.9l-8.5-13.6V81.2z M134.6,99.7
	l8.5,13.6h7.8l-8.5-13.6H134.6z M142.4,99.7l8.5,13.6v-11.2l-8.5-13.6V99.7z M142.4,88.5l8.5,13.6h38.9l-8.5-13.6H142.4z
	 M181.3,99.7l8.5,13.6h7.7L189,99.7H181.3z M189,99.7l8.5,13.6V83.9L189,70.3L189,99.7z M142.4,81.2V70.3h-7.8v29.4h7.8V88.5h38.9
	v11.2h7.7V70.3h-7.7v10.9H142.4z M191,99.7l8.5,13.6h9.3l-8.5-13.6H191z M200.3,99.7l8.5,13.6l5.7-7.1L206,92.6L200.3,99.7z
	 M206,92.6l8.5,13.6h25.1l-8.5-13.6H206z M231.2,92.6l8.5,13.6l5.7,7.1l-8.5-13.6L231.2,92.6z M236.9,99.7l8.5,13.6h9.3l-8.5-13.6
	H236.9z M191,99.7h9.3l5.7-7.1h25.1l5.7,7.1h9.3l-20.2-25.8c-2.6-4-7.9-5.2-12-2.6c-1.1,0.7-2,1.6-2.6,2.6L191,99.7z M211.7,85.3
	l8.5,13.6l6.9-8.5l-8.5-13.6L211.7,85.3z M218.6,76.7l8.5,13.6l6.9,8.5l-8.5-13.6C225.6,85.3,218.6,76.7,218.6,76.7L218.6,76.7z
	 M211.7,85.3l6.9-8.5l6.9,8.5H211.7z M249.2,99.7l8.5,13.6h48.9l-8.5-13.6H249.2z M298.1,99.7l8.5,13.6c3,0,5.5-2.4,5.5-5.5
	c0,0,0,0,0,0l-8.5-13.6C303.6,97.2,301.2,99.7,298.1,99.7C298.1,99.7,298.1,99.7,298.1,99.7z M303.6,94.2l8.5,13.6v-7.2L303.6,87
	V94.2z M303.6,87l8.5,13.6c0-1.1-0.3-2.2-0.9-3.1l-8.5-13.6C303.3,84.8,303.6,85.9,303.6,87z M257,81.4l8.5,13.6v-3.8L257,77.6V81.4
	z M257,77.6l8.5,13.6h45.6l-8.5-13.6H257z M302.6,77.6l8.5,13.6v-7.3l-8.5-13.6V77.6z M250.1,86.1l8.5,13.6c1,1.6,2.7,2.5,4.6,2.5
	l-8.5-13.6C252.8,88.6,251.1,87.7,250.1,86.1z M254.7,88.6l8.5,13.6h41.3l-8.6-13.6H254.7z M295.9,88.6v3.8h-46.7v7.3h48.9
	c3,0,5.5-2.4,5.5-5.5c0,0,0,0,0,0V87c0-1.1-0.3-2.2-0.9-3.1c-1-1.6-2.7-2.5-4.6-2.5h-41.2v-3.8h45.6v-7.3h-47.9
	c-3,0-5.5,2.5-5.5,5.5c0,0,0,0.1,0,0.1V83c0,1.1,0.3,2.2,0.9,3.1c1,1.6,2.7,2.5,4.6,2.5H295.9z M308.4,97.2l8.5,13.6
	c1,1.6,2.7,2.6,4.6,2.6L313,99.8C311.1,99.7,309.4,98.7,308.4,97.2L308.4,97.2z M313,99.7l8.5,13.6h48.9l-8.5-13.6H313z M362,99.7
	l8.5,13.6V106L362,92.4L362,99.7z M315.3,92.4l8.5,13.6v-3.8l-8.5-13.6V92.4z M315.3,88.6l8.5,13.6h46.6l-8.5-13.6H315.3z M362,88.6
	l8.5,13.6v-7.3L362,81.3L362,88.6z M315.3,81.4l8.5,13.6v-3.8l-8.5-13.6L315.3,81.4z M315.3,77.6l8.5,13.6h46.6l-8.5-13.6H315.3z
	 M362,77.6l8.5,13.6v-7.3L362,70.3L362,77.6z M307.6,94.2c0,1.1,0.3,2.1,0.8,3c1,1.6,2.7,2.6,4.6,2.6h48.9v-7.3h-46.6v-3.9h46.6
	v-7.3h-46.6v-3.7h46.6v-7.3H313c-3,0-5.5,2.5-5.5,5.5c0,0,0,0.1,0,0.1v18.3H307.6z"/>
<path class="st0" d="M76.3,75.9c0-3,2.4-5.5,5.4-5.6c0,0,0.1,0,0.1,0h48.9v7.3H84.1v14.9h46.6v7.3H81.8c-3,0-5.5-2.4-5.5-5.5
	c0,0,0,0,0,0V75.9z"/>
<path class="st0" d="M181.3,81.2V70.3h7.7v29.4h-7.7V88.5h-38.9v11.2h-7.8V70.3h7.8v10.9H181.3z"/>
<path class="st0" d="M211.3,73.9c1.6-2.4,4.4-3.9,7.3-4c2.9,0.1,5.7,1.6,7.3,4l20.3,25.8h-9.3l-5.7-7.1h-25.1l-5.7,7.1h-9.3
	L211.3,73.9z M225.6,85.3l-6.9-8.5l-6.9,8.5H225.6z"/>
<path class="st0" d="M254.7,88.6c-3,0-5.5-2.5-5.5-5.5c0,0,0-0.1,0-0.1v-7.1c0-3,2.4-5.5,5.4-5.6c0,0,0.1,0,0.1,0h47.9v7.3H257v3.8
	h41.2c3,0,5.5,2.5,5.5,5.5c0,0,0,0.1,0,0.1v7.2c0,3-2.3,5.5-5.3,5.5c-0.1,0-0.1,0-0.2,0h-48.9v-7.3h46.6v-3.8H254.7z"/>
<path class="st0" d="M307.6,75.9c0-3,2.4-5.5,5.4-5.6c0,0,0.1,0,0.1,0H362v7.3h-46.6v3.8H362v7.3h-46.6v3.8H362v7.3h-48.9
	c-3,0-5.5-2.4-5.5-5.5c0,0,0,0,0,0V75.9z"/>
<g>
	<defs>
		<path id="SVGID_1_" d="M76.3,75.9c0-3,2.4-5.5,5.4-5.6c0,0,0.1,0,0.1,0h48.9v7.3H84.1v14.9h46.6v7.3H81.8c-3,0-5.5-2.4-5.5-5.5
			c0,0,0,0,0,0V75.9z"/>
	</defs>
	<clipPath id="SVGID_2_">
		<use xlink:href="#SVGID_1_"  style="overflow:visible;"/>
	</clipPath>
	<g class="st1">
		<path class="st2" d="M76.3,75.9c0-3,2.4-5.5,5.4-5.6c0,0,0.1,0,0.1,0h48.9v7.3H84.1v14.9h46.6v7.3H81.8c-3,0-5.5-2.4-5.5-5.5
			c0,0,0,0,0,0V75.9z"/>
	</g>
</g>
<g>
	<defs>
		<polygon id="SVGID_3_" points="181.3,81.2 181.3,70.3 189,70.3 189,99.7 181.3,99.7 181.3,88.5 142.4,88.5 142.4,99.7 134.6,99.7 
			134.6,70.3 142.4,70.3 142.4,81.2 		"/>
	</defs>
	<clipPath id="SVGID_4_">
		<use xlink:href="#SVGID_3_"  style="overflow:visible;"/>
	</clipPath>
	<g class="st3">
		<path class="st2" d="M181.3,81.2V70.3h7.7v29.4h-7.7V88.5h-38.9v11.2h-7.8V70.3h7.8v10.9H181.3z"/>
	</g>
</g>
<g>
	<defs>
		<path id="SVGID_5_" d="M211.3,73.9c1.6-2.4,4.4-3.9,7.3-4c2.9,0.1,5.7,1.6,7.3,4l20.3,25.8h-9.3l-5.7-7.1h-25.1l-5.7,7.1h-9.3
			L211.3,73.9z M225.6,85.3l-6.9-8.5l-6.9,8.5H225.6z"/>
	</defs>
	<clipPath id="SVGID_6_">
		<use xlink:href="#SVGID_5_"  style="overflow:visible;"/>
	</clipPath>
	<g class="st4">
		<path class="st2" d="M211.3,73.9c1.6-2.4,4.4-3.9,7.3-4c2.9,0.1,5.7,1.6,7.3,4l20.3,25.8h-9.3l-5.7-7.1h-25.1l-5.7,7.1h-9.3
			L211.3,73.9z M225.6,85.3l-6.9-8.5l-6.9,8.5H225.6z"/>
	</g>
</g>
<g>
	<defs>
		<path id="SVGID_7_" d="M254.7,88.6c-3,0-5.5-2.5-5.5-5.5c0,0,0-0.1,0-0.1v-7.1c0-3,2.4-5.5,5.4-5.6c0,0,0.1,0,0.1,0h47.9v7.3H257
			v3.8h41.2c3,0,5.5,2.5,5.5,5.5c0,0,0,0.1,0,0.1v7.2c0,3-2.3,5.5-5.3,5.5c-0.1,0-0.1,0-0.2,0h-48.9v-7.3h46.6v-3.8H254.7z"/>
	</defs>
	<clipPath id="SVGID_8_">
		<use xlink:href="#SVGID_7_"  style="overflow:visible;"/>
	</clipPath>
	<g class="st5">
		<path class="st2" d="M254.7,88.6c-3,0-5.5-2.5-5.5-5.5c0,0,0-0.1,0-0.1v-7.1c0-3,2.4-5.5,5.4-5.6c0,0,0.1,0,0.1,0h47.9v7.3H257
			v3.8h41.2c3,0,5.5,2.5,5.5,5.5c0,0,0,0.1,0,0.1v7.2c0,3-2.3,5.5-5.3,5.5c-0.1,0-0.1,0-0.2,0h-48.9v-7.3h46.6v-3.8H254.7z"/>
	</g>
</g>
<g>
	<defs>
		<path id="SVGID_9_" d="M307.6,75.9c0-3,2.4-5.5,5.4-5.6c0,0,0.1,0,0.1,0H362v7.3h-46.6v3.8H362v7.3h-46.6v3.8H362v7.3h-48.9
			c-3,0-5.5-2.4-5.5-5.5c0,0,0,0,0,0V75.9z"/>
	</defs>
	<clipPath id="SVGID_10_">
		<use xlink:href="#SVGID_9_"  style="overflow:visible;"/>
	</clipPath>
	<g class="st6">
		<path class="st2" d="M307.6,75.9c0-3,2.4-5.5,5.4-5.6c0,0,0.1,0,0.1,0H362v7.3h-46.6v3.8H362v7.3h-46.6v3.8H362v7.3h-48.9
			c-3,0-5.5-2.4-5.5-5.5c0,0,0,0,0,0V75.9z"/>
	</g>
</g>
<path d="M76.3,142.9l8.5,13.6h7.8l-8.5-13.6H76.3z M84,142.9l8.5,13.6V135L84,121.4V142.9z M84,121.4l8.5,13.6l34.7,20l-8.5-13.6
	L84,121.4z M118.7,141.4l8.5,13.6c1.6,1.1,3.4,1.7,5.3,1.8l-8.5-13.6C122.1,143.3,120.5,142.4,118.7,141.4z M124,143.3l8.5,13.6
	c2.7,0,5-2.1,5-4.9c0-0.1,0-0.2,0-0.3l-8.5-13.6c0.1,2.8-2,5.1-4.8,5.2C124.1,143.3,124.1,143.3,124,143.3L124,143.3z M129,138
	l8.5,13.6V127l-8.5-13.6V138z M76.3,142.9h7.8v-21.5l34.7,20c1.6,1.1,3.4,1.7,5.3,1.8c2.7,0,5-2.1,5-4.9c0-0.1,0-0.2,0-0.3v-24.6
	h-7.9v21.5l-35.1-20.1c-1.5-1.1-3.2-1.7-5-1.7c-2.7,0-4.8,2.1-4.8,5.2L76.3,142.9z M132.8,140.4l8.5,13.6c1,1.6,2.7,2.6,4.6,2.6
	l-8.5-13.6C135.5,142.9,133.8,141.9,132.8,140.4L132.8,140.4z M137.4,142.9l8.5,13.6h43.5l-8.5-13.6H137.4z M180.9,142.9l8.5,13.6
	c3,0,5.5-2.4,5.5-5.5c0,0,0,0,0,0l-8.5-13.6C186.4,140.4,184,142.9,180.9,142.9C180.9,142.9,180.9,142.9,180.9,142.9L180.9,142.9z
	 M186.4,137.4l8.5,13.6v-18.3l-8.5-13.6V137.4z M186.4,119.1l8.5,13.6c0-1.1-0.3-2.2-0.9-3.1l-8.5-13.6
	C186.1,116.9,186.4,118,186.4,119.1L186.4,119.1z M132,137.4c0,1.1,0.3,2.1,0.8,3c1,1.6,2.7,2.6,4.6,2.6h43.5c3,0,5.5-2.4,5.5-5.5
	c0,0,0,0,0,0v-18.3c0-1.1-0.3-2.2-0.9-3.1c-1-1.6-2.7-2.5-4.6-2.5h-43.5c-3,0-5.5,2.5-5.5,5.5c0,0,0,0.1,0,0.1v18.2H132z
	 M139.7,135.7l8.5,13.6v-14.9l-8.5-13.6V135.7z M139.7,120.8l8.5,13.6h38.9l-8.5-13.6H139.7z M139.7,135.7v-14.9h38.9v14.9H139.7z
	 M190.3,142.9l8.5,13.6h7.8l-8.5-13.6H190.3z M198.1,142.9l8.5,13.6v-11.1l-8.5-13.6V142.9z M198.1,131.8l8.5,13.6h38.9l-8.5-13.6
	L198.1,131.8z M237.9,142.9l8.5,13.6h7.8l-8.5-13.6H237.9z M245.6,142.9l8.5,13.6c-0.6-1.3-0.9-2.7-0.9-4.1l-8.5-13.6
	C244.8,140.2,245.1,141.6,245.6,142.9L245.6,142.9z M244.7,138.8l8.5,13.6v-6.2l-8.5-13.6V138.8z M244.7,132.6l8.5,13.6
	c0-0.7-0.2-1.4-0.5-2l-8.5-13.6C244.5,131.2,244.7,131.9,244.7,132.6L244.7,132.6z M242.7,129.5l8.5,13.6c1.3-0.5,2.1-1.7,2-3.1
	l-8.5-13.6C244.8,127.8,244,129,242.7,129.5L242.7,129.5z M244.7,126.3l8.5,13.6v-7.2l-8.5-13.6V126.3z M244.7,119.1l8.5,13.6
	c0-1.1-0.3-2.2-0.9-3.1l-8.5-13.6C244.4,116.9,244.7,118,244.7,119.1z M190.3,113.5v29.4h7.8v-11.1H237v7.3c0,1.3,0.2,2.6,0.8,3.8
	h7.8c-0.6-1.3-0.9-2.7-0.9-4.1v-6.2c0-0.7-0.2-1.4-0.5-2c-0.3-0.6-0.9-1-1.5-1.2c1.3-0.5,2.1-1.7,2-3.1v-7.2c0-1.1-0.3-2.2-0.9-3.1
	c-1-1.6-2.7-2.5-4.6-2.5L190.3,113.5z M198.1,124.6l8.5,13.6v-3.8l-8.5-13.6V124.6z M198.1,120.8l8.5,13.6h38.9l-8.5-13.6
	L198.1,120.8z M198.1,124.6v-3.8H237v3.8H198.1z M302.3,120.8l8.5,13.6v-7.3l-8.5-13.6V120.8z M248,120.8l8.5,13.6h23.3l-8.5-13.6
	L248,120.8z M271.3,142.9l8.5,13.6h7.8l-8.5-13.6H271.3z M279,142.9l8.5,13.6v-22.2l-8.5-13.6V142.9z M279,120.8l8.5,13.6h23.3
	l-8.5-13.6H279z M302.3,120.8v-7.3h-54.4v7.3h23.3V143h7.8v-22.2L302.3,120.8z M313.1,124.4l8.5,13.6v-10.9l-8.5-13.6V124.4z
	 M305.3,142.9l8.5,13.6h7.8l-8.5-13.6H305.3z M313.1,142.9l8.5,13.6v-11.2l-8.5-13.6V142.9z M313.1,131.7l8.5,13.6h38.9l-8.5-13.6
	H313.1z M352,142.9l8.5,13.6h7.7l-8.5-13.6H352z M359.7,142.9l8.5,13.6v-29.4l-8.5-13.6V142.9z M313.1,124.4v-10.9h-7.8v29.4h7.8
	v-11.2H352v11.2h7.7v-29.4H352v10.9L313.1,124.4z"/>
<path class="st0" d="M76.3,118.4c0-3.1,2.1-5.2,4.8-5.2c1.9,0,3.1,0.7,5,1.7l35.1,20.1v-21.5h7.9v24.6c0.2,2.7-1.9,5-4.6,5.2
	c-0.1,0-0.3,0-0.4,0c-1.9-0.1-3.7-0.7-5.3-1.8l-34.7-20V143h-7.8V118.4z"/>
<path class="st0" d="M132,119.1c0-3,2.4-5.5,5.4-5.6c0,0,0.1,0,0.1,0h43.4c3,0,5.5,2.5,5.5,5.5c0,0,0,0.1,0,0.1v18.3
	c0,3-2.3,5.5-5.3,5.5c-0.1,0-0.1,0-0.2,0h-43.5c-3,0-5.5-2.4-5.5-5.5c0,0,0,0,0,0v-18.3H132z M178.7,135.7v-14.9h-38.9v14.9H178.7z"
	/>
<path class="st0" d="M239.3,113.5c3,0,5.5,2.5,5.5,5.5c0,0,0,0.1,0,0.1v7.2c0.1,1.4-0.7,2.6-2,3.1c1.3,0.5,2.1,1.7,2,3.1v6.2
	c0,1.4,0.3,2.8,0.9,4.1h-7.8c-0.6-1.2-0.8-2.5-0.8-3.8v-7.3h-38.9v11.1h-7.8v-29.4L239.3,113.5L239.3,113.5z M237,124.6v-3.8h-38.9
	v3.8H237z"/>
<path class="st0" d="M279,120.8V143h-7.8v-22.2h-23.3v-7.3h54.4v7.3H279z"/>
<path class="st0" d="M352,124.4v-10.9h7.7v29.4H352v-11.2h-38.9v11.2h-7.8v-29.4h7.8v10.9H352z"/>
<g>
	<defs>
		<path id="SVGID_11_" d="M76.3,118.4c0-3.1,2.1-5.2,4.8-5.2c1.9,0,3.1,0.7,5,1.7l35.1,20.1v-21.5h7.9v24.6c0.2,2.7-1.9,5-4.6,5.2
			c-0.1,0-0.3,0-0.4,0c-1.9-0.1-3.7-0.7-5.3-1.8l-34.7-20V143h-7.8V118.4z"/>
	</defs>
	<clipPath id="SVGID_12_">
		<use xlink:href="#SVGID_11_"  style="overflow:visible;"/>
	</clipPath>
	<g class="st7">
		<path class="st2" d="M76.3,118.4c0-3.1,2.1-5.2,4.8-5.2c1.9,0,3.1,0.7,5,1.7l35.1,20.1v-21.5h7.9v24.6c0.2,2.7-1.9,5-4.6,5.2
			c-0.1,0-0.3,0-0.4,0c-1.9-0.1-3.7-0.7-5.3-1.8l-34.7-20V143h-7.8V118.4z"/>
	</g>
</g>
<g>
	<defs>
		<path id="SVGID_13_" d="M132,119.1c0-3,2.4-5.5,5.4-5.6c0,0,0.1,0,0.1,0h43.4c3,0,5.5,2.5,5.5,5.5c0,0,0,0.1,0,0.1v18.3
			c0,3-2.3,5.5-5.3,5.5c-0.1,0-0.1,0-0.2,0h-43.5c-3,0-5.5-2.4-5.5-5.5c0,0,0,0,0,0v-18.3H132z M178.7,135.7v-14.9h-38.9v14.9H178.7
			z"/>
	</defs>
	<clipPath id="SVGID_14_">
		<use xlink:href="#SVGID_13_"  style="overflow:visible;"/>
	</clipPath>
	<g class="st8">
		<path class="st2" d="M132,119.1c0-3,2.4-5.5,5.4-5.6c0,0,0.1,0,0.1,0h43.4c3,0,5.5,2.5,5.5,5.5c0,0,0,0.1,0,0.1v18.3
			c0,3-2.3,5.5-5.3,5.5c-0.1,0-0.1,0-0.2,0h-43.5c-3,0-5.5-2.4-5.5-5.5c0,0,0,0,0,0v-18.3H132z M178.7,135.7v-14.9h-38.9v14.9H178.7
			z"/>
	</g>
</g>
<g>
	<defs>
		<path id="SVGID_15_" d="M239.3,113.5c3,0,5.5,2.5,5.5,5.5c0,0,0,0.1,0,0.1v7.2c0.1,1.4-0.7,2.6-2,3.1c1.3,0.5,2.1,1.7,2,3.1v6.2
			c0,1.4,0.3,2.8,0.9,4.1h-7.8c-0.6-1.2-0.8-2.5-0.8-3.8v-7.3h-38.9v11.1h-7.8v-29.4L239.3,113.5L239.3,113.5z M237,124.6v-3.8
			h-38.9v3.8H237z"/>
	</defs>
	<clipPath id="SVGID_16_">
		<use xlink:href="#SVGID_15_"  style="overflow:visible;"/>
	</clipPath>
	<g class="st9">
		<path class="st2" d="M239.3,113.5c3,0,5.5,2.5,5.5,5.5c0,0,0,0.1,0,0.1v7.2c0.1,1.4-0.7,2.6-2,3.1c1.3,0.5,2.1,1.7,2,3.1v6.2
			c0,1.4,0.3,2.8,0.9,4.1h-7.8c-0.6-1.2-0.8-2.5-0.8-3.8v-7.3h-38.9v11.1h-7.8v-29.4L239.3,113.5L239.3,113.5z M237,124.6v-3.8
			h-38.9v3.8H237z"/>
	</g>
</g>
<g>
	<defs>
		<polygon id="SVGID_17_" points="279,120.8 279,142.9 271.3,142.9 271.3,120.8 248,120.8 248,113.5 302.3,113.5 302.3,120.8 		"/>
	</defs>
	<clipPath id="SVGID_18_">
		<use xlink:href="#SVGID_17_"  style="overflow:visible;"/>
	</clipPath>
	<g class="st10">
		<path class="st2" d="M279,120.8V143h-7.8v-22.2h-23.3v-7.3h54.4v7.3H279z"/>
	</g>
</g>
<g>
	<defs>
		<polygon id="SVGID_19_" points="352,124.4 352,113.5 359.7,113.5 359.7,142.9 352,142.9 352,131.7 313.1,131.7 313.1,142.9 
			305.3,142.9 305.3,113.5 313.1,113.5 313.1,124.4 		"/>
	</defs>
	<clipPath id="SVGID_20_">
		<use xlink:href="#SVGID_19_"  style="overflow:visible;"/>
	</clipPath>
	<g class="st11">
		<path class="st2" d="M352,124.4v-10.9h7.7v29.4H352v-11.2h-38.9v11.2h-7.8v-29.4h7.8v10.9H352z"/>
	</g>
</g>
</svg>
