<?xml version="1.0" encoding="utf-8"?>
<!-- Generator: Adobe Illustrator 25.0.1, SVG Export Plug-In . SVG Version: 6.00 Build 0)  -->
<svg version="1.1" id="Layer_1" xmlns="http://www.w3.org/2000/svg" xmlns:xlink="http://www.w3.org/1999/xlink" x="0px" y="0px"
	 viewBox="0 0 119.7 119.8" style="enable-background:new 0 0 119.7 119.8;" xml:space="preserve">
<style type="text/css">
	.st0{fill:#FFFFFF;}
</style>
<path class="st0" d="M69.9,59.1c-5.1,0-9.3-4.1-9.3-9.3c0,0,0,0,0,0V0h-1.5v49.8c0,5.1-4.1,9.3-9.3,9.3c0,0,0,0,0,0H0v1.6h49.8
	c5.1,0,9.3,4.1,9.3,9.3c0,0,0,0,0,0v49.8h1.5V70c0-5.1,4.1-9.3,9.3-9.3c0,0,0,0,0,0h49.8v-1.5L69.9,59.1z"/>
</svg>
