<svg xmlns="http://www.w3.org/2000/svg" width="197" height="207.1" viewBox="0 0 197 207.1"><path d="M76.3,59.1A9.29,9.29,0,0,1,67,49.84V0H65.5V49.8a9.27,9.27,0,0,1-9.26,9.3H6.4v1.5H56.2a9.27,9.27,0,0,1,9.3,9.26V119.7H67V69.9a9.28,9.28,0,0,1,9.26-9.3H126.1V59.1Z" transform="translate(0)"/><path d="M197,107.7H181c8.1-16,13.4-33.2,13.1-51-.3-11.4-4.2-23.2-12.8-31-9.4-8.7-23.3-10.6-35.4-8.9-16.5,2.6-32.1,9.4-46.5,18.3v-25H97.5V36.2C83,45.4,69.8,56.8,58,68.3A195.08,195.08,0,0,1,97.5,38v69.7H27.8A196.76,196.76,0,0,1,58,68.4C46.5,80.1,35.2,93.3,26,107.7H0v1.9H24.9c-9,14.4-15.8,30.1-18.4,46.6-1.8,12.1.2,26,8.8,35.5,9,9.9,22.9,13.4,35.8,12.8,16.2-1,31.9-5.8,46.5-13.2v15.8h1.9V190.4c22.5-11.7,42.5-29.3,58.2-47.6a196.23,196.23,0,0,0,22.4-33.2H197ZM152.5,22.8c13.7,1,25.4,8.4,27.8,22.6,2.9,20.2-7.1,42.6-20.4,62.3H100.7l40.4-40.5-1.3-1.3L99.4,106.4V37C116.1,27.8,134.3,22,152.5,22.8ZM35.2,190.5c-14.1-2.4-21.5-14.2-22.5-27.8-.9-18.2,5-36.5,14.3-53.2H96.5L56.1,150l1.3,1.3,40.4-40.5V170c-19.9,13.4-42.4,23.4-62.6,20.5Zm96.5-48.6a245,245,0,0,1-32.2,26.9V109.6h59.2a248.11,248.11,0,0,1-27,32.3Z" transform="translate(0)"/></svg>