<?xml version="1.0" encoding="UTF-8"?>
<!DOCTYPE svg PUBLIC "-//W3C//DTD SVG 1.1//EN" "http://www.w3.org/Graphics/SVG/1.1/DTD/svg11.dtd">
<svg xmlns="http://www.w3.org/2000/svg" version="1.1" width="512px" height="512px" style="shape-rendering:geometricPrecision; text-rendering:geometricPrecision; image-rendering:optimizeQuality; fill-rule:evenodd; clip-rule:evenodd" xmlns:xlink="http://www.w3.org/1999/xlink">
<g><path style="opacity:0.984" fill="#000000" d="M 511.5,238.5 C 511.5,244.5 511.5,250.5 511.5,256.5C 509.573,261.687 507.073,266.687 504,271.5C 473.5,302 443,332.5 412.5,363C 395.054,374.697 378.054,374.03 361.5,361C 332.667,332.167 303.833,303.333 275,274.5C 259.628,253.384 261.462,233.884 280.5,216C 294.65,207.72 308.983,207.386 323.5,215C 332.97,223.469 342.137,232.303 351,241.5C 346.304,196.822 325.137,162.322 287.5,138C 236.655,109.164 186.321,110.164 136.5,141C 84.5547,180.829 66.3881,232.663 82,296.5C 106.704,360.49 153.537,393.323 222.5,395C 238.333,398.833 248.167,408.667 252,424.5C 254.585,447.852 244.751,463.018 222.5,470C 136.063,470.543 70.5628,434.043 26,360.5C 11.7966,334.063 2.96327,306.063 -0.5,276.5C -0.5,262.5 -0.5,248.5 -0.5,234.5C 10.4794,154.689 51.8128,96.5228 123.5,60C 179.49,35.8835 236.157,34.2168 293.5,55C 373.239,89.9082 418.405,150.742 429,237.5C 437.653,227.505 447.486,219.005 458.5,212C 484.356,204.928 502.022,213.761 511.5,238.5 Z"/></g>
</svg>
