<?xml version="1.0" standalone="no"?> <!DOCTYPE svg PUBLIC "-//W3C//DTD SVG 20010904//EN" "http://www.w3.org/TR/2001/REC-SVG-20010904/DTD/svg10.dtd"> <svg version="1.0" xmlns="http://www.w3.org/2000/svg" width="1626.000000pt" height="1800.000000pt" viewBox="0 0 1626.000000 1800.000000" preserveAspectRatio="xMidYMid meet"> <g transform="translate(0.000000,1800.000000) scale(0.100000,-0.100000)" fill="#d4d4d4" stroke="none"> <path d="M4889 17127 l-34 -23 -5 -89 -5 -90 -33 68 c-18 37 -34 67 -37 67 -2 0 -20 -8 -40 -17 l-35 -17 0 -27 c0 -15 4 -29 8 -31 9 -4 64 -96 111 -186 18 -35 39 -75 47 -90 8 -15 14 -31 14 -37 0 -5 10 -23 23 -39 l23 -28 37 15 c45 19 45 13 -3 104 -22 42 -40 80 -40 85 l0 9 20 -11 c11 -6 45 -35 76 -65 61 -60 67 -62 112 -39 44 22 41 48 -10 82 -14 9 -60 44 -103 77 l-77 59 6 111 7 112 -14 11 -14 12 -34 -23z"/> <path d="M4602 16993 c-18 -9 -45 -32 -60 -51 l-26 -34 -4 -57 -4 -57 23 -55 c12 -30 36 -76 53 -102 l31 -48 52 -35 c67 -44 156 -36 203 20 l12 15 -7 21 c-3 11 -14 24 -24 30 l-18 9 -19 -14 c-11 -8 -36 -15 -56 -15 l-37 0 -34 34 c-18 18 -44 53 -56 77 l-23 44 -2 53 -1 54 25 18 c14 11 33 26 43 35 l17 15 -15 30 c-18 34 -27 36 -73 13z"/> <path d="M8204 16857 c-2 -7 -3 -80 -2 -162 l3 -150 35 0 35 0 3 149 3 148 -12 14 c-14 18 -58 18 -65 1z"/> <path d="M4286 16805 c-15 -14 -25 -28 -23 -33 10 -17 77 -244 97 -327 33 -133 43 -145 91 -107 l22 19 -16 51 c-22 68 -22 70 16 86 l32 14 42 -46 41 -46 29 9 28 10 3 25 4 24 -14 10 c-22 18 -141 157 -193 226 -27 36 -55 71 -62 78 -7 7 -13 18 -13 23 0 5 -13 9 -29 9 l-28 0 -27 -25z m172 -235 l-3 -15 -24 0 -24 0 -13 45 c-8 25 -14 52 -14 60 l0 15 40 -45 c22 -25 39 -52 38 -60z"/> <path d="M4003 16655 c-28 -14 -58 -34 -68 -45 l-17 -19 56 -99 c31 -54 80 -145 109 -203 l52 -104 27 2 c37 2 135 69 153 104 40 76 -10 185 -90 200 l-20 4 0 51 0 51 -25 36 c-38 55 -95 62 -177 22z m105 -75 l22 -21 0 -27 c0 -63 -42 -68 -72 -8 l-21 44 6 16 c9 22 39 20 65 -4z m107 -175 l25 -24 0 -28 c-1 -33 -21 -63 -43 -63 l-15 0 -26 46 c-47 84 -5 133 59 69z"/> <path d="M7731 16666 l-12 -14 22 -54 c29 -69 61 -119 106 -169 l37 -40 -16 -27 c-20 -35 -37 -120 -41 -202 l-2 -65 23 -3 22 -3 13 28 c14 32 65 118 87 148 8 11 50 54 92 96 94 91 93 91 18 113 -100 30 -230 109 -318 193 -17 16 -17 16 -31 -1z"/> <path d="M3646 16465 c-93 -47 -101 -62 -59 -128 14 -23 61 -109 104 -192 84 -162 85 -163 130 -144 l30 12 -6 26 c-3 14 -14 37 -23 51 -9 14 -25 40 -35 58 l-18 34 12 14 11 14 23 -13 c13 -6 41 -37 62 -67 l39 -55 21 -3 c21 -3 73 23 73 37 0 15 -109 135 -135 148 l-26 14 6 52 6 52 -26 40 c-50 77 -105 91 -189 50z m101 -87 l23 -21 0 -38 0 -38 -20 -11 -19 -10 -15 22 c-62 94 -40 163 31 96z"/> <path d="M7620 16399 c-25 -4 -69 -12 -99 -17 -53 -9 -71 -22 -71 -54 0 -42 47 -58 119 -38 20 5 71 16 114 25 l78 16 16 26 17 25 -19 14 -19 14 -45 -1 c-25 -1 -66 -5 -91 -10z"/> <path d="M3420 16362 c-121 -61 -118 -51 -42 -185 32 -56 79 -146 105 -199 53 -113 48 -110 149 -61 l77 38 6 18 c19 54 -17 73 -83 42 l-51 -24 -8 12 c-50 68 -51 107 -6 129 l28 13 3 20 c1 11 -2 27 -7 35 l-10 15 -33 -14 c-18 -7 -42 -15 -53 -18 l-21 -4 -17 36 c-24 51 -22 59 23 84 l40 22 0 23 c0 51 -26 56 -100 18z"/> <path d="M8212 16338 l-12 -12 0 -142 c0 -78 3 -149 6 -158 l6 -16 24 0 23 0 11 19 10 20 0 138 0 139 -12 12 c-7 7 -19 12 -28 12 -9 0 -21 -5 -28 -12z"/> <path d="M7169 16305 c-3 -3 -40 -9 -82 -15 -43 -5 -91 -16 -107 -25 l-30 -16 0 -19 c0 -11 10 -24 22 -31 l21 -11 51 10 c28 6 67 13 86 16 19 2 61 12 93 21 l58 17 -3 26 -3 27 -50 3 c-28 2 -53 0 -56 -3z"/> <path d="M3195 16239 c-33 -17 -79 -42 -102 -55 l-43 -25 0 -19 c0 -11 11 -27 24 -35 l24 -16 26 12 27 13 19 -20 c10 -10 51 -83 90 -161 39 -77 78 -147 86 -154 l16 -13 26 17 27 16 -2 24 c0 12 -17 50 -36 82 -64 111 -127 234 -127 247 0 7 12 22 27 34 l28 22 -10 28 c-14 39 -31 40 -100 3z"/> <path d="M6665 16219 c-22 -4 -71 -13 -110 -19 -38 -6 -80 -17 -92 -26 l-23 -14 0 -25 0 -25 25 -12 25 -11 72 13 c40 7 94 16 120 19 26 4 57 16 68 26 l20 18 0 27 0 28 -22 6 c-27 7 -30 7 -83 -5z"/> <path d="M6100 16114 c-47 -14 -101 -29 -120 -34 -55 -14 -74 -51 -37 -74 l16 -10 68 13 c37 7 97 17 132 22 l64 9 18 16 c23 21 24 47 3 68 -20 21 -42 19 -144 -10z"/> <path d="M2985 16118 c-44 -25 -42 -38 20 -142 23 -39 46 -81 50 -93 l6 -23 -10 0 c-6 0 -53 38 -105 85 l-94 85 -19 0 c-45 -1 -68 -47 -39 -79 19 -22 155 -281 162 -308 l6 -23 -35 0 c-20 0 -38 -4 -41 -9 -3 -5 -19 -14 -35 -19 l-30 -11 -20 35 c-12 19 -24 46 -27 59 l-6 24 29 15 c16 8 34 21 40 28 l11 13 -9 23 c-10 26 -31 28 -69 6 l-28 -17 -16 6 c-9 4 -24 23 -33 43 l-18 36 24 17 c13 9 34 26 47 38 l24 22 -12 26 c-6 14 -18 25 -27 25 -23 -1 -153 -72 -164 -91 l-10 -16 39 -64 c21 -35 68 -122 104 -193 37 -71 74 -134 83 -140 l17 -11 22 14 c13 8 49 27 81 43 l58 29 6 30 6 29 12 -17 13 -18 28 10 c43 15 40 38 -15 131 -85 140 -68 150 60 33 l88 -81 36 6 35 7 0 25 c0 13 -11 43 -26 65 -14 22 -59 106 -100 187 -42 81 -81 152 -87 159 l-12 12 -20 -11z"/> <path d="M5660 16030 c-19 -5 -73 -16 -120 -25 -47 -9 -93 -18 -102 -21 l-18 -5 0 -34 0 -35 25 -6 c13 -3 57 1 97 10 40 9 95 21 123 26 l50 10 13 17 c16 23 12 43 -13 58 l-20 12 -35 -7z"/> <path d="M5155 15944 c-5 -2 -59 -13 -118 -23 -117 -21 -137 -31 -137 -67 l0 -23 21 -12 21 -11 99 12 c106 12 199 35 199 50 0 4 3 15 6 23 l5 15 -22 21 c-21 19 -50 25 -74 15z"/> <path d="M6335 15870 c-22 -4 -71 -22 -110 -40 -65 -29 -110 -49 -160 -70 -11 -4 -42 -16 -70 -26 -27 -9 -81 -32 -120 -51 -38 -18 -75 -33 -83 -33 -7 0 -43 -14 -80 -32 -37 -17 -103 -46 -147 -63 -44 -18 -118 -49 -165 -70 -47 -20 -98 -43 -115 -50 -16 -7 -59 -27 -95 -43 -36 -17 -90 -40 -120 -52 -30 -12 -75 -32 -99 -46 -24 -13 -48 -24 -53 -24 -6 0 -66 -27 -135 -60 -68 -33 -128 -60 -133 -60 -4 0 -57 -23 -117 -51 -59 -28 -117 -54 -128 -59 -39 -18 -81 -32 -155 -51 -41 -11 -107 -35 -146 -54 -39 -19 -75 -35 -79 -35 -4 0 -49 -20 -101 -45 -51 -25 -96 -45 -100 -45 -4 0 -43 -17 -88 -39 -44 -21 -117 -55 -160 -75 -105 -48 -158 -89 -231 -176 -33 -40 -73 -86 -90 -104 -16 -17 -84 -95 -150 -171 -66 -77 -126 -144 -132 -148 -7 -4 -19 -20 -27 -35 -8 -15 -25 -39 -37 -54 -13 -14 -48 -55 -77 -90 -29 -34 -84 -100 -122 -146 -39 -46 -75 -93 -81 -105 -7 -12 -28 -42 -48 -67 -20 -24 -45 -57 -56 -72 -11 -15 -49 -64 -85 -109 -93 -117 -144 -184 -308 -408 -35 -47 -72 -97 -83 -111 -11 -14 -29 -38 -40 -55 -10 -16 -48 -70 -83 -120 -36 -49 -77 -110 -92 -135 -15 -25 -40 -60 -56 -78 -15 -18 -28 -39 -28 -47 0 -7 -3 -15 -7 -17 -5 -1 -26 -30 -48 -63 -21 -33 -55 -76 -75 -96 -34 -35 -65 -80 -125 -184 -16 -29 -67 -115 -113 -191 -92 -154 -87 -144 -156 -269 -55 -100 -155 -298 -200 -396 -16 -35 -37 -72 -45 -83 l-16 -18 -5 133 -5 134 -26 3 -26 3 -12 -14 -12 -15 3 -138 3 -139 32 -20 c18 -11 32 -28 33 -37 0 -18 118 -128 137 -128 7 0 36 -20 65 -45 29 -25 58 -49 63 -53 50 -38 152 -119 161 -128 7 -5 49 -39 94 -75 112 -88 189 -150 308 -246 56 -46 106 -83 111 -83 5 0 19 -12 31 -27 12 -16 39 -39 60 -53 21 -14 71 -52 111 -85 40 -33 98 -80 129 -105 32 -25 111 -88 176 -140 66 -53 146 -117 179 -142 33 -25 87 -70 120 -98 33 -28 74 -59 91 -68 18 -9 64 -44 104 -77 40 -33 83 -67 97 -76 26 -18 70 -53 172 -140 36 -30 71 -58 78 -62 l12 -8 59 53 c32 29 91 82 132 118 41 36 81 72 90 80 8 8 51 44 95 80 44 36 149 127 234 203 85 75 158 137 161 137 4 0 10 -453 13 -1007 3 -555 11 -1156 17 -1338 l11 -330 -5 -2800 c-3 -1540 -8 -2872 -11 -2959 l-6 -159 10 -10 c11 -11 66 -22 346 -67 39 -6 91 -15 116 -21 85 -19 231 -39 504 -68 55 -6 127 -16 160 -22 64 -11 180 -22 415 -39 80 -6 192 -15 250 -21 145 -14 354 -27 620 -39 124 -5 349 -15 500 -22 l275 -13 965 0 965 0 355 13 c501 18 1106 48 1158 57 18 3 130 12 250 20 280 19 432 32 507 44 33 6 110 15 170 21 265 26 443 49 534 69 25 5 80 15 121 21 125 19 161 27 171 37 l10 10 -4 244 c-9 557 -28 3561 -23 3650 3 52 7 936 8 1965 1 1028 4 2068 6 2312 l3 442 13 0 c7 0 87 -66 179 -147 92 -82 215 -188 274 -238 155 -132 243 -211 260 -234 8 -12 22 -25 32 -31 l19 -10 68 56 c38 30 96 76 128 102 33 26 78 63 102 82 69 56 134 104 164 120 16 8 45 31 67 50 21 19 50 44 65 55 75 57 177 136 189 147 25 24 112 93 129 103 10 6 39 29 66 53 27 24 78 66 114 93 130 101 173 135 218 174 26 23 57 47 68 55 48 33 162 124 201 161 23 21 45 39 49 39 3 0 23 15 43 33 20 17 95 77 166 132 70 55 158 125 194 156 36 31 98 77 136 102 39 26 85 60 103 77 l32 30 0 25 c0 13 -14 53 -31 87 -17 35 -37 77 -44 93 -40 89 -124 254 -215 424 -5 9 -29 51 -54 93 -25 43 -46 80 -46 83 0 3 -19 36 -42 73 -24 37 -48 76 -55 87 -7 11 -38 62 -70 114 -32 51 -65 107 -74 123 -9 17 -26 36 -39 43 -13 7 -33 28 -44 48 -27 45 -100 155 -124 187 -11 14 -58 83 -106 153 -47 71 -93 135 -101 144 -8 8 -20 23 -26 34 -6 11 -63 91 -127 177 -65 86 -126 171 -136 187 -10 17 -32 42 -47 57 -16 15 -29 32 -29 38 0 6 -20 33 -45 59 -25 26 -45 51 -45 55 0 7 -22 35 -137 178 -18 22 -33 44 -33 49 0 4 -19 31 -42 58 -24 27 -61 72 -83 100 -22 29 -51 64 -65 79 -33 37 -98 115 -132 160 -15 19 -45 54 -66 76 -20 23 -47 53 -58 68 -12 15 -51 60 -87 100 -36 40 -93 107 -127 148 -34 41 -86 100 -115 131 l-52 56 -104 51 c-149 72 -298 142 -306 142 -3 0 -48 20 -100 45 -51 25 -97 45 -102 45 -4 0 -33 13 -64 30 -31 16 -105 43 -166 60 -112 31 -165 52 -292 115 -39 19 -75 35 -80 35 -5 0 -65 27 -133 60 -69 33 -129 60 -133 60 -4 0 -35 13 -68 29 -33 16 -82 38 -110 49 -27 11 -88 38 -135 60 -47 21 -110 49 -140 62 -30 12 -92 40 -136 61 -45 22 -86 39 -93 39 -6 0 -37 13 -69 29 -31 15 -79 36 -107 46 -27 10 -86 35 -130 55 -44 21 -91 41 -105 45 -14 4 -90 34 -170 68 l-145 61 -80 -1 -80 -1 -90 -30 c-121 -41 -271 -80 -375 -98 -82 -13 -171 -30 -330 -60 -137 -26 -691 -61 -835 -52 l-60 3 -1 81 c0 45 -4 88 -7 98 l-6 16 -25 0 -26 0 -6 -26 c-4 -14 -4 -52 -1 -85 4 -32 4 -65 1 -74 l-6 -15 -62 0 c-62 0 -273 13 -491 30 -113 10 -170 17 -410 55 -55 9 -143 22 -195 30 -52 8 -124 21 -160 29 -36 8 -90 19 -120 25 -78 16 -178 40 -225 56 -55 18 -152 25 -200 15z m3777 -90 c29 -12 67 -27 85 -35 17 -8 35 -15 40 -15 5 0 31 -11 59 -24 27 -13 74 -34 104 -46 30 -13 60 -30 67 -38 6 -8 17 -11 23 -7 6 4 41 -8 78 -25 37 -17 94 -41 127 -52 33 -12 94 -38 135 -59 41 -21 88 -41 105 -45 16 -4 85 -34 152 -66 67 -32 126 -58 130 -58 4 0 44 -17 88 -39 44 -21 91 -41 105 -45 14 -5 64 -28 112 -52 47 -24 91 -44 97 -44 5 0 66 -27 134 -60 69 -33 130 -60 135 -60 6 0 35 -13 64 -28 30 -15 90 -36 134 -46 43 -11 97 -27 119 -37 22 -9 85 -38 140 -62 459 -207 513 -230 558 -247 15 -5 30 -16 33 -24 5 -12 -55 -180 -101 -281 -7 -16 -21 -55 -31 -85 -9 -30 -20 -64 -25 -75 -19 -52 -71 -220 -79 -258 -11 -52 -27 -117 -45 -182 -8 -27 -21 -84 -29 -125 -34 -173 -47 -237 -56 -265 -9 -29 -15 -62 -45 -270 -8 -55 -22 -140 -30 -190 -24 -143 -32 -208 -50 -405 -9 -102 -22 -226 -30 -276 -8 -49 -15 -115 -15 -146 0 -31 -4 -90 -10 -130 -13 -100 -32 -639 -35 -998 l-2 -295 -21 -3 -20 -3 -74 73 c-40 40 -90 93 -110 118 l-37 45 -11 -15 -11 -15 6 -40 c6 -46 32 -119 53 -152 l14 -23 -16 -25 c-20 -30 -20 -51 -1 -59 21 -8 19 -21 -14 -101 -67 -166 -44 -229 42 -117 58 75 164 175 180 169 l12 -4 -3 -1449 c-2 -797 -8 -1678 -13 -1959 -11 -660 -11 -3228 0 -3855 5 -267 11 -791 13 -1164 l3 -679 -85 -17 c-47 -9 -148 -25 -225 -34 -77 -9 -169 -22 -205 -27 -36 -6 -103 -14 -150 -19 -47 -5 -112 -14 -145 -20 -33 -5 -121 -15 -195 -20 -348 -26 -400 -30 -470 -39 -41 -6 -133 -13 -205 -16 -71 -3 -155 -10 -185 -15 -30 -6 -417 -21 -860 -35 l-805 -25 -615 0 -615 1 -390 14 c-214 8 -541 19 -725 25 -184 5 -364 15 -400 20 -36 6 -135 15 -220 20 -85 5 -191 14 -235 19 -44 5 -141 15 -215 21 -216 19 -535 56 -549 64 -4 3 -53 10 -107 15 -121 13 -273 36 -539 84 l-70 12 -2 127 c-1 70 1 136 4 147 l5 20 52 -6 c28 -3 67 -12 86 -20 19 -8 80 -19 135 -23 97 -9 174 -22 245 -41 19 -6 67 -14 105 -19 39 -5 93 -14 122 -21 75 -17 114 13 68 51 l-15 13 -73 4 c-39 3 -91 11 -115 19 -23 8 -69 14 -102 14 -32 0 -69 4 -82 10 -13 5 -66 14 -118 20 -99 10 -248 34 -288 46 l-24 7 5 1546 c5 1861 -7 4966 -22 5872 -6 361 -11 904 -12 1205 -2 950 -22 1499 -70 1929 -6 50 -17 151 -24 225 -27 257 -34 325 -41 350 -6 26 -27 160 -45 288 -5 40 -14 84 -19 98 -6 14 -10 39 -10 56 0 18 -6 57 -14 87 -8 31 -22 91 -31 133 -41 203 -48 235 -57 263 -5 17 -16 53 -23 80 -41 158 -67 250 -74 260 -4 5 -17 44 -30 85 -29 95 -43 132 -75 200 -37 81 -58 141 -60 173 l-1 29 60 24 c33 14 79 34 103 45 78 35 126 57 212 94 47 21 127 57 177 81 51 24 114 50 140 59 27 8 57 20 68 25 11 5 55 19 99 30 43 12 94 31 114 41 19 11 62 31 96 43 33 13 98 42 143 65 44 22 86 41 93 41 6 0 50 20 98 45 47 25 91 45 97 45 6 0 51 20 100 44 50 24 101 47 115 51 14 4 76 32 139 62 63 29 126 56 140 60 14 3 58 23 98 43 39 21 100 48 135 60 35 13 90 36 123 52 33 15 70 28 82 28 l22 0 10 -32 9 -33 1 41 1 41 101 46 c55 26 105 47 110 47 6 0 42 14 81 30 38 17 80 30 93 30 l23 0 26 -44 c14 -25 26 -50 26 -56 0 -6 18 -48 39 -93 22 -46 43 -96 47 -112 4 -17 17 -46 29 -65 12 -19 32 -62 46 -95 13 -33 33 -73 45 -90 12 -16 32 -50 44 -75 34 -68 157 -229 183 -240 12 -4 36 -21 52 -36 99 -91 133 -121 160 -142 59 -44 161 -109 205 -129 126 -59 180 -82 235 -97 33 -9 76 -22 95 -28 41 -13 77 -21 220 -48 l105 -20 200 0 c521 0 917 135 1254 427 36 32 67 61 69 65 2 4 21 17 42 29 21 12 44 32 51 45 7 13 16 24 20 24 4 0 33 39 65 88 31 48 66 100 76 115 25 36 129 244 162 323 14 34 37 83 51 109 14 26 25 55 25 64 0 14 55 91 65 91 3 0 28 -9 57 -20z m-3447 -45 c39 -8 104 -21 145 -30 175 -39 209 -46 295 -60 50 -8 146 -22 215 -30 69 -8 177 -22 240 -30 159 -22 340 -34 500 -35 l134 0 23 -27 23 -28 23 26 22 27 300 5 c165 3 327 10 360 16 77 13 259 39 355 51 100 12 194 28 255 44 28 8 104 28 170 46 66 17 133 36 150 41 41 13 46 1 23 -57 l-20 -52 -61 -25 c-85 -34 -88 -35 -207 -67 -58 -16 -130 -36 -160 -45 -73 -21 -175 -42 -285 -59 -49 -8 -97 -17 -105 -20 -8 -3 -53 -10 -100 -17 -240 -31 -367 -41 -592 -46 l-248 -5 -162 16 c-230 22 -353 36 -428 47 -36 6 -108 16 -160 24 -126 18 -251 42 -325 61 -114 29 -180 44 -234 54 -63 11 -106 24 -178 52 l-52 21 -11 31 c-7 17 -18 46 -26 65 l-15 34 33 -8 c18 -4 65 -13 103 -20z m3138 -243 c-9 -39 -158 -296 -200 -347 -5 -5 -28 -35 -51 -65 -23 -31 -58 -66 -79 -77 -21 -12 -65 -47 -98 -78 -98 -92 -113 -105 -122 -105 -4 0 -35 -18 -68 -41 -33 -22 -100 -61 -150 -86 -85 -43 -116 -55 -225 -88 -25 -7 -70 -21 -100 -30 -85 -26 -413 -70 -432 -58 l-11 6 6 121 7 121 -9 13 -8 14 -29 -4 -29 -3 0 -135 0 -135 -120 3 c-66 1 -155 9 -199 17 -43 8 -93 15 -110 15 -52 0 -313 92 -421 148 -126 66 -200 119 -290 205 -38 38 -82 75 -96 82 -14 8 -45 40 -69 72 -24 32 -47 60 -52 61 -4 2 -8 9 -8 16 0 7 -20 42 -45 79 -25 37 -45 70 -45 72 0 3 -20 41 -45 86 -24 44 -49 96 -54 115 l-9 34 19 0 c11 0 28 -4 38 -10 28 -14 187 -59 266 -75 39 -8 102 -21 140 -30 301 -67 494 -92 900 -115 99 -6 185 -12 191 -14 l11 -4 -5 -136 -5 -136 13 -15 c16 -19 35 -19 54 1 l16 16 -6 139 -7 139 134 0 c74 1 179 5 234 10 55 5 159 14 230 20 162 13 356 47 520 91 44 11 107 27 140 34 33 7 107 30 165 52 115 44 123 45 113 5z m-6338 -1014 c6 -19 34 -92 70 -183 5 -11 14 -38 20 -60 7 -22 24 -72 38 -111 44 -119 107 -353 152 -559 9 -44 23 -102 30 -130 7 -27 20 -95 29 -150 10 -55 22 -125 28 -155 6 -30 14 -84 19 -119 5 -36 13 -78 18 -95 5 -17 12 -67 16 -111 3 -44 10 -111 15 -150 5 -38 17 -133 26 -210 8 -77 22 -185 30 -240 7 -55 19 -217 25 -360 5 -143 14 -350 19 -460 5 -110 11 -387 14 -615 4 -228 9 -490 12 -582 l5 -166 -33 -31 c-18 -16 -98 -86 -178 -155 -80 -69 -170 -149 -201 -177 -31 -28 -64 -56 -75 -62 -10 -6 -32 -23 -49 -39 -30 -28 -55 -36 -55 -18 0 15 -38 50 -55 50 -8 0 -15 -5 -15 -11 0 -20 21 -49 35 -49 7 0 17 -5 21 -11 l6 -11 -78 -74 c-44 -41 -89 -77 -101 -80 l-22 -6 -74 59 c-41 32 -107 85 -148 118 -41 33 -95 73 -121 88 -25 15 -55 38 -65 50 -10 13 -36 36 -58 51 -22 14 -63 45 -92 69 -28 23 -107 86 -175 139 -67 54 -148 118 -178 143 -30 25 -91 73 -135 107 -44 34 -85 67 -92 73 -28 24 -81 67 -120 98 -82 63 -164 129 -195 158 -18 16 -37 29 -43 29 -6 0 -22 13 -35 28 -14 16 -42 40 -61 53 -20 13 -83 61 -140 107 -57 46 -128 102 -157 125 -29 23 -71 57 -93 75 -23 17 -46 32 -53 32 -7 0 -30 15 -52 34 -21 19 -54 48 -73 63 l-33 29 31 67 c17 36 31 70 31 75 0 5 12 19 26 33 l26 24 12 -17 c7 -10 17 -18 22 -18 5 0 25 -14 44 -32 19 -17 57 -47 84 -66 28 -19 62 -46 76 -59 14 -13 41 -34 60 -45 19 -12 61 -41 92 -65 31 -24 60 -43 63 -43 4 0 34 -19 66 -42 33 -24 98 -71 147 -105 48 -34 95 -69 104 -77 10 -9 35 -28 56 -43 21 -16 44 -34 52 -40 41 -34 152 -113 160 -113 4 0 10 -4 12 -8 3 -7 136 -115 216 -175 39 -29 90 -70 125 -99 11 -10 23 -18 26 -18 3 0 28 -20 56 -45 27 -25 56 -45 62 -45 7 0 13 -3 13 -7 0 -5 30 -30 66 -58 36 -27 78 -61 93 -75 41 -37 138 -120 257 -220 12 -10 52 -42 90 -71 38 -30 77 -64 87 -76 l18 -23 25 0 24 0 0 13 c0 20 -106 118 -315 292 -60 50 -123 105 -142 123 -19 17 -36 32 -38 32 -3 0 -18 11 -33 24 -15 14 -79 64 -143 113 -175 134 -241 186 -258 206 -9 9 -19 17 -24 17 -13 0 -88 60 -115 93 -13 15 -31 27 -39 27 -8 0 -38 20 -66 45 -29 25 -57 45 -63 45 -7 0 -14 7 -18 15 -3 8 -12 15 -21 15 -8 0 -15 4 -15 8 0 5 -26 26 -57 48 -32 21 -59 42 -61 46 -2 4 -20 17 -40 30 -44 27 -58 37 -80 61 -9 9 -20 17 -25 17 -5 0 -35 20 -67 45 -32 25 -64 45 -72 45 -7 0 -29 14 -48 31 -19 17 -66 52 -105 78 -38 25 -80 56 -93 68 -13 12 -34 25 -45 29 -12 4 -28 13 -36 21 -23 24 -89 63 -106 63 -8 0 -15 5 -15 10 0 6 -11 16 -25 22 -13 6 -27 19 -31 30 l-5 18 25 53 c14 28 48 95 77 147 28 52 65 120 81 150 17 30 35 61 41 69 7 7 26 40 42 72 31 58 75 131 152 251 24 37 43 70 43 73 0 9 64 94 100 132 24 26 84 112 135 192 6 9 26 38 45 65 35 50 94 137 142 210 15 23 36 52 48 66 12 14 31 39 43 57 25 36 46 64 177 241 128 173 176 235 358 465 34 43 62 82 62 86 0 5 10 19 23 33 12 13 41 46 62 73 22 27 47 56 55 65 8 9 33 40 55 69 22 29 61 78 87 109 27 31 54 64 60 72 11 13 107 124 153 176 6 7 57 66 114 133 112 129 116 133 126 99z m9575 -7 c0 -3 10 -17 23 -31 42 -46 212 -244 342 -400 261 -312 289 -347 322 -395 27 -42 212 -276 224 -285 3 -3 19 -23 35 -46 28 -39 200 -269 244 -325 31 -40 75 -102 195 -274 26 -38 66 -95 87 -125 89 -128 194 -286 200 -302 4 -10 19 -23 33 -30 14 -6 25 -15 25 -21 0 -5 13 -26 29 -46 15 -20 38 -54 50 -76 12 -22 50 -85 85 -140 35 -55 74 -120 87 -145 12 -25 28 -52 34 -60 7 -8 33 -53 58 -100 24 -47 57 -107 73 -135 31 -53 69 -130 76 -155 l5 -15 -29 -17 c-16 -10 -34 -18 -40 -18 -6 0 -35 -18 -64 -40 -29 -22 -57 -40 -61 -40 -10 0 -117 -73 -121 -82 -2 -5 -8 -8 -13 -8 -8 0 -153 -103 -196 -140 -7 -5 -16 -10 -21 -10 -4 0 -21 -13 -37 -30 -16 -16 -36 -30 -45 -30 -9 0 -26 -8 -38 -17 -11 -10 -30 -25 -42 -33 -73 -49 -227 -164 -236 -176 -6 -8 -14 -14 -18 -14 -11 0 -106 -74 -106 -82 0 -4 -5 -8 -10 -8 -14 0 -110 -72 -110 -82 0 -4 -6 -8 -13 -8 -13 0 -25 -9 -89 -66 -15 -13 -30 -24 -33 -24 -7 0 -171 -131 -261 -207 -40 -35 -77 -63 -82 -63 -5 0 -16 -7 -23 -16 -8 -9 -50 -44 -94 -77 -87 -66 -123 -96 -169 -142 -17 -17 -43 -38 -58 -47 -26 -17 -78 -65 -231 -210 l-81 -78 -22 0 -22 0 -68 60 c-38 34 -88 77 -112 98 -24 20 -58 52 -75 70 -18 19 -43 40 -57 48 -14 7 -56 42 -93 77 l-68 65 2 268 c2 425 49 1674 68 1844 6 52 18 145 26 205 9 61 20 142 25 180 5 39 12 113 15 165 6 89 17 166 50 335 28 143 34 182 40 245 4 36 13 85 20 110 20 71 34 129 51 215 23 117 31 154 48 210 9 28 29 97 45 155 16 58 41 139 56 180 14 41 31 91 37 110 6 19 18 53 28 75 10 22 27 65 37 95 10 30 22 60 26 67 7 12 37 7 37 -6z m2252 -3148 c9 -10 26 -40 37 -68 12 -27 33 -70 45 -95 13 -25 27 -54 30 -66 l6 -21 -75 -61 c-41 -34 -79 -62 -83 -62 -5 0 -46 -30 -92 -67 -45 -38 -95 -77 -110 -88 -15 -11 -64 -49 -109 -85 -45 -36 -96 -75 -113 -87 -16 -12 -50 -39 -74 -60 -24 -21 -77 -65 -119 -98 -41 -33 -95 -76 -119 -95 -24 -19 -70 -56 -102 -81 -33 -26 -106 -84 -164 -130 -58 -46 -121 -96 -140 -111 -19 -15 -60 -48 -90 -73 -30 -25 -110 -88 -177 -141 -68 -52 -123 -99 -123 -104 0 -6 -6 -10 -13 -10 -7 0 -35 -20 -63 -44 -28 -25 -71 -57 -96 -73 -50 -30 -183 -134 -257 -199 -25 -23 -56 -46 -67 -52 l-22 -11 -34 32 c-18 18 -73 67 -121 110 -99 89 -101 95 -50 122 20 11 54 37 76 58 21 20 42 37 46 37 4 0 23 15 42 33 19 17 56 50 83 72 28 22 66 54 85 70 20 17 56 47 81 65 25 19 57 47 72 63 15 15 31 27 35 27 5 0 31 19 58 43 28 23 82 67 120 97 39 30 75 58 80 62 6 5 38 30 71 57 34 27 75 60 90 75 16 14 32 26 36 26 3 0 13 6 20 13 7 7 45 36 83 65 39 28 75 55 80 60 6 4 26 19 45 32 19 14 40 30 46 35 49 43 77 65 127 99 31 21 57 42 57 46 0 4 10 10 23 14 12 3 38 19 57 37 19 17 58 46 85 64 28 19 60 43 72 54 12 12 28 21 35 22 7 0 33 16 58 35 25 18 68 49 97 69 29 19 61 43 71 53 10 10 33 27 52 39 19 12 47 34 62 48 15 14 30 25 33 25 9 0 89 61 154 117 32 27 43 28 63 6z"/> <path d="M10434 15540 c-4 -16 -13 -35 -20 -41 -8 -6 -14 -25 -14 -41 0 -17 -6 -42 -14 -56 -8 -15 -24 -49 -37 -77 -12 -27 -28 -62 -35 -77 -8 -14 -14 -35 -14 -46 0 -12 -5 -24 -11 -27 -5 -4 -15 -17 -20 -28 -5 -12 -20 -40 -34 -62 -13 -22 -24 -46 -25 -53 0 -8 -18 -30 -40 -51 -22 -20 -40 -42 -40 -48 0 -5 -10 -18 -21 -29 -12 -10 -29 -31 -38 -46 -107 -172 -460 -482 -683 -598 -27 -13 -48 -28 -48 -32 0 -5 -8 -8 -18 -8 -10 0 -27 -7 -38 -15 -10 -8 -25 -15 -33 -15 -8 0 -22 -6 -30 -13 -9 -7 -36 -21 -61 -31 -25 -10 -58 -24 -75 -31 -16 -8 -43 -16 -60 -18 -16 -3 -43 -9 -60 -15 -45 -16 -115 -33 -167 -41 -25 -4 -52 -12 -60 -18 -14 -12 -176 -32 -333 -42 -55 -3 -105 -9 -111 -13 -6 -4 -26 -3 -44 2 l-34 10 -27 -14 -27 -14 -9 9 c-4 4 -76 13 -158 18 -201 13 -337 31 -355 46 -8 7 -28 15 -45 18 -54 10 -120 29 -147 43 -14 8 -37 14 -51 14 -14 0 -38 6 -54 14 -15 8 -59 28 -98 46 -38 17 -82 38 -97 46 -14 8 -31 14 -38 14 -7 0 -29 12 -49 28 -20 15 -52 36 -71 46 -19 11 -37 22 -40 25 -3 4 -31 24 -62 45 -32 22 -58 43 -58 47 0 5 -14 16 -31 24 -34 18 -258 239 -304 300 -17 22 -36 46 -43 54 -7 7 -28 36 -46 65 -18 28 -47 67 -65 86 -17 19 -44 53 -59 75 -15 22 -30 42 -34 43 -5 2 -8 11 -8 19 0 9 -9 31 -21 50 l-21 34 5 25 4 25 -48 50 c-26 27 -50 58 -54 68 l-6 19 -37 15 -38 15 -47 70 c-26 39 -47 75 -47 82 0 29 -37 0 -69 -55 -32 -56 -167 -202 -220 -238 l-24 -16 6 -15 6 -16 31 0 c34 0 143 36 178 58 33 22 37 11 37 -101 l0 -102 28 -3 c16 -2 35 2 44 9 l15 13 -4 90 -3 91 15 -2 c8 0 47 -12 85 -26 l70 -25 32 -49 c18 -26 32 -56 32 -65 1 -9 8 -23 16 -32 8 -8 15 -22 15 -30 0 -9 15 -33 33 -53 40 -46 105 -135 135 -185 13 -20 26 -38 30 -40 4 -2 23 -23 42 -48 52 -69 187 -206 260 -263 35 -29 78 -64 94 -79 17 -16 34 -28 39 -28 9 0 30 -17 55 -42 9 -10 22 -18 29 -18 7 0 13 -4 13 -9 0 -5 10 -13 23 -17 12 -3 40 -18 62 -33 22 -14 60 -35 85 -46 25 -10 52 -25 61 -32 8 -7 23 -13 31 -13 9 0 21 -7 28 -15 7 -8 21 -15 31 -15 18 0 74 -19 136 -46 17 -8 39 -14 50 -14 10 0 27 -7 37 -15 l20 -15 42 0 42 0 11 -14 c7 -8 31 -16 54 -19 47 -5 168 -21 297 -39 47 -7 153 -12 235 -12 l150 0 155 23 c85 12 178 25 205 28 28 3 59 11 70 18 11 6 48 14 83 18 34 3 68 10 75 15 7 5 26 12 42 15 17 2 55 15 85 27 30 12 69 25 85 27 17 3 37 11 45 18 8 7 27 15 43 19 15 3 27 11 27 16 0 6 4 10 9 10 12 0 90 37 126 60 17 10 49 28 73 39 24 11 61 34 82 51 21 16 42 30 47 30 5 0 23 14 41 30 18 17 38 30 43 30 5 0 12 7 15 15 4 8 11 15 18 15 23 1 328 308 376 379 8 12 30 39 47 59 18 20 33 42 33 47 1 14 32 50 50 57 14 5 28 27 44 68 7 19 27 50 44 68 6 7 12 21 12 30 0 9 7 26 15 36 8 11 15 30 15 43 0 13 4 23 9 23 5 0 14 12 19 28 6 15 20 52 31 82 12 30 21 71 21 90 0 20 7 45 15 56 8 10 15 36 15 57 l0 37 -10 0 c-6 0 -13 -13 -16 -30z"/> <path d="M5870 14824 c-6 -14 -10 -79 -10 -144 0 -65 4 -130 10 -144 l10 -26 30 0 30 0 14 23 15 22 -5 127 -4 128 -12 20 -13 20 -28 0 -27 0 -10 -26z"/> <path d="M5880 14330 l-15 -9 0 -156 0 -156 15 -9 c21 -14 43 -12 66 4 l19 14 3 127 2 127 -21 34 c-21 34 -42 42 -69 24z"/> <path d="M5870 13794 c-6 -14 -10 -82 -10 -150 l0 -125 10 -20 11 -19 35 0 34 0 11 27 10 27 -4 122 -3 123 -19 21 c-10 11 -29 20 -42 20 l-23 0 -10 -26z"/> <path d="M5876 13284 l-16 -15 0 -135 0 -135 10 -20 11 -19 29 0 c16 0 36 7 45 16 l16 16 -3 133 -3 133 -19 21 c-23 25 -49 27 -70 5z"/> <path d="M5869 12759 l-11 -21 4 -143 c3 -156 2 -151 38 -160 l25 -6 20 15 20 14 0 140 0 140 -19 21 c-11 12 -29 21 -42 21 l-23 0 -12 -21z"/> <path d="M5866 12238 c-3 -13 -6 -81 -6 -151 l0 -128 10 -20 11 -19 27 0 c15 0 34 5 42 10 l15 9 0 140 0 139 -19 21 -19 21 -27 0 -28 0 -6 -22z"/> <path d="M5870 11721 l-10 -20 0 -131 0 -131 10 -20 11 -19 24 0 c14 0 34 9 45 20 l21 21 -4 129 -3 129 -18 20 c-11 12 -29 21 -42 21 l-23 0 -11 -19z"/> <path d="M7464 11235 c-7 -17 -5 -27 31 -210 14 -71 30 -150 35 -175 5 -25 11 -58 15 -73 l6 -28 41 3 42 3 19 100 c10 55 22 114 26 130 l8 30 5 -15 c23 -65 38 -129 38 -164 l0 -42 16 -22 15 -22 29 0 29 0 15 22 16 22 0 44 c0 46 18 145 52 284 11 48 18 94 15 102 l-6 16 -35 0 -35 0 -9 -17 c-5 -10 -12 -61 -15 -114 -7 -105 -13 -129 -32 -129 l-14 0 -5 48 c-25 205 -27 212 -71 212 l-34 0 -10 -37 c-6 -21 -11 -54 -11 -73 0 -38 -31 -150 -41 -150 -10 0 -19 41 -19 92 0 116 -27 178 -77 178 l-34 0 -5 -15z"/> <path d="M8903 11242 l-12 -8 -3 -94 -3 -95 -34 -3 c-18 -2 -39 2 -45 8 l-11 11 0 87 0 87 -50 0 -50 0 4 -230 3 -230 10 -12 c14 -18 63 -16 78 2 l13 15 -6 78 c-9 99 -4 106 65 103 l27 -1 3 -102 3 -103 33 -3 c18 -2 39 1 46 7 l13 11 -1 230 -1 231 -15 9 c-18 12 -51 13 -67 2z"/> <path d="M7972 10998 l3 -243 40 0 40 0 3 243 2 242 -45 0 -45 0 2 -242z"/> <path d="M8127 11233 c-4 -3 -7 -111 -7 -239 l0 -234 26 -6 c14 -4 52 -4 84 -1 l59 5 24 18 c14 11 38 39 53 64 l29 45 0 115 0 115 -23 38 c-13 20 -39 49 -56 62 l-33 25 -75 0 c-41 0 -78 -3 -81 -7z m154 -99 l24 -26 0 -96 c0 -136 -28 -198 -80 -178 l-15 5 0 161 0 160 23 0 24 0 24 -26z"/> <path d="M8417 11234 c-29 -29 0 -80 48 -86 l30 -3 0 -185 c0 -102 4 -191 8 -197 11 -18 62 -16 77 2 l12 14 -6 172 -6 172 11 13 c6 8 22 14 34 14 30 0 47 23 43 57 l-3 28 -121 3 c-66 1 -123 -1 -127 -4z"/> <path d="M5870 11201 l-10 -20 0 -125 c0 -68 4 -136 10 -150 l10 -26 29 0 29 0 13 17 14 16 1 121 2 121 -14 33 -13 32 -30 0 -30 0 -11 -19z"/> <path d="M4434 10763 c-65 -81 -127 -139 -200 -187 -38 -25 -78 -51 -88 -59 l-19 -13 74 -43 74 -44 66 -66 c36 -36 79 -83 96 -105 l31 -39 16 6 16 6 0 25 c0 31 -38 155 -56 181 -8 11 -14 28 -14 38 l0 18 100 -2 101 -2 11 11 11 11 -7 24 -6 25 -20 5 c-11 3 -55 3 -99 0 l-78 -6 -6 10 c-3 5 7 37 23 71 l30 61 2 57 3 57 -11 4 c-7 2 -29 -18 -50 -44z"/> <path d="M5877 10693 c-4 -3 -7 -77 -7 -164 l0 -157 16 -6 c25 -10 42 -7 58 10 l16 15 0 34 c0 45 7 48 122 46 l100 -2 14 12 c19 16 18 43 -4 62 l-19 17 -106 0 -107 0 0 53 0 54 -18 16 c-19 17 -53 22 -65 10z"/> <path d="M4840 10534 l-10 -25 10 -20 11 -19 147 0 148 0 18 13 19 14 -13 24 c-20 37 -26 39 -178 39 l-142 0 -10 -26z"/> <path d="M5362 10548 c-7 -7 -12 -21 -12 -33 0 -12 5 -26 12 -33 l12 -12 147 0 148 0 15 16 c17 16 14 26 -12 57 l-15 17 -142 0 -141 0 -12 -12z"/> <path d="M6398 10534 l-12 -26 11 -16 10 -17 148 -3 148 -3 18 17 18 17 -20 28 -20 29 -145 0 -144 0 -12 -26z"/> <path d="M6922 10548 c-16 -16 -15 -53 2 -67 l14 -12 147 3 148 3 10 16 10 16 -18 26 -17 27 -142 0 -142 0 -12 -12z"/> <path d="M7440 10540 c-24 -24 -25 -34 -4 -55 l16 -16 150 3 151 3 11 17 10 17 -24 26 -23 25 -134 0 -133 0 -20 -20z"/> <path d="M7974 10552 c-6 -4 -15 -17 -18 -30 l-8 -23 12 -14 12 -15 142 0 142 0 12 12 c19 19 14 45 -10 62 l-22 16 -126 0 c-69 0 -130 -4 -136 -8z"/> <path d="M8482 10548 c-7 -7 -12 -21 -12 -33 0 -12 5 -26 12 -33 l12 -12 141 0 141 0 19 14 18 13 -22 32 -22 31 -138 0 -137 0 -12 -12z"/> <path d="M9004 10552 c-18 -12 -24 -42 -14 -63 l11 -19 145 0 145 0 20 10 c25 14 24 32 -4 58 l-23 22 -135 0 c-74 0 -139 -4 -145 -8z"/> <path d="M9512 10548 c-7 -7 -12 -25 -12 -40 l0 -28 23 -5 c12 -3 87 -4 167 -3 l145 3 3 26 3 26 -16 17 -16 16 -143 0 -142 0 -12 -12z"/> <path d="M10029 10533 l-11 -28 10 -15 9 -15 153 0 153 0 10 16 11 17 -17 26 -17 26 -145 0 -145 0 -11 -27z"/> <path d="M10552 10548 c-7 -7 -12 -21 -12 -33 0 -12 5 -26 12 -33 l12 -12 147 0 148 0 15 16 c17 16 14 26 -12 57 l-15 17 -142 0 -141 0 -12 -12z"/> <path d="M11072 10548 c-7 -7 -12 -25 -12 -40 l0 -28 23 -5 c12 -3 85 -4 161 -3 l139 3 10 16 11 17 -17 26 -17 26 -143 0 -143 0 -12 -12z"/> <path d="M11586 10544 c-22 -21 -20 -51 3 -64 l20 -10 140 0 140 0 15 16 16 15 -12 22 c-18 35 -26 37 -170 37 l-137 0 -15 -16z"/> <path d="M5880 10180 l-15 -9 0 -155 c0 -168 -1 -162 35 -171 l25 -6 20 15 20 14 -1 140 -2 139 -18 21 c-20 24 -40 27 -64 12z"/> <path d="M5889 9663 c-10 -2 -20 -14 -23 -26 -10 -36 -7 -264 4 -291 l10 -26 23 0 c13 0 32 6 43 14 l19 14 0 142 0 142 -24 19 c-13 10 -26 18 -30 18 -3 -1 -13 -3 -22 -6z"/> <path d="M5869 9123 l-11 -28 4 -137 c3 -149 2 -144 38 -153 l25 -6 20 15 20 14 0 140 0 140 -19 21 c-11 12 -30 21 -43 21 l-23 0 -11 -27z"/> <path d="M5870 8604 c-6 -14 -10 -82 -10 -150 l0 -125 10 -20 11 -19 27 0 c15 0 34 5 42 10 l15 9 0 140 0 139 -19 21 c-11 12 -30 21 -43 21 l-23 0 -10 -26z"/> <path d="M5870 8091 l-10 -20 0 -125 c0 -68 4 -136 10 -150 l10 -26 30 0 30 0 14 23 14 22 -2 127 -1 126 -19 21 c-11 12 -29 21 -42 21 l-23 0 -11 -19z"/> <path d="M5882 7582 l-13 -9 3 -159 3 -159 28 -3 c16 -2 35 2 43 9 l14 11 0 143 0 142 -18 16 c-20 19 -40 21 -60 9z"/> <path d="M5194 7497 c-19 -11 -18 -61 1 -77 l16 -13 79 6 80 6 10 -20 c6 -11 10 -32 8 -47 l-3 -27 -92 -3 -93 -3 -10 -20 -11 -19 13 -27 13 -27 228 0 229 -1 9 17 c5 9 9 28 9 42 l0 26 -22 5 c-13 3 -59 6 -103 7 l-80 3 -3 34 c-2 18 2 39 8 45 l11 11 87 0 86 0 15 27 16 27 -16 17 -16 16 -227 1 c-125 1 -234 -2 -242 -6z"/> <path d="M5203 7193 l-13 -5 0 -118 0 -119 10 -6 10 -6 -15 -29 c-30 -58 -13 -133 42 -191 l34 -36 59 -18 58 -18 79 5 79 4 44 25 c24 13 53 37 64 52 l21 28 0 75 0 75 -15 9 c-18 12 -220 13 -238 1 l-13 -8 3 -54 3 -54 27 -3 28 -3 12 25 11 26 37 0 c20 0 44 -6 54 -13 l18 -14 -6 -21 c-4 -11 -22 -30 -40 -42 l-33 -20 -83 0 -83 0 -32 20 c-50 31 -71 124 -49 215 11 45 15 46 207 43 l178 -3 10 15 c5 8 8 29 7 45 l-3 30 -197 3 -198 2 0 33 c0 49 -31 69 -77 50z"/> <path d="M5876 7054 c-3 -9 -6 -81 -6 -160 l0 -144 24 -11 23 -11 22 11 21 12 0 143 0 143 -18 16 c-23 21 -58 22 -66 1z"/> <path d="M5193 6582 c-17 -17 -16 -32 2 -52 l15 -17 123 4 122 4 -25 -20 c-14 -11 -52 -30 -85 -41 -33 -12 -80 -29 -105 -39 l-45 -17 0 -39 0 -40 234 0 234 0 11 18 11 17 -11 18 -11 17 -117 3 -116 3 0 14 0 15 28 6 c15 3 36 10 47 15 11 5 51 20 89 33 73 26 86 37 86 74 0 32 -3 33 -250 35 l-224 2 -13 -13z"/> <path d="M5881 6536 l-12 -14 3 -148 3 -149 18 -3 c10 -2 29 -1 43 2 l24 6 0 144 0 143 -18 16 c-23 21 -46 22 -61 3z"/> <path d="M5600 6254 c-6 -14 -8 -30 -4 -35 3 -5 3 -23 -1 -39 l-7 -30 -64 0 -64 0 0 39 c0 22 -3 46 -6 55 l-6 16 -29 0 -29 0 0 -42 c0 -24 -4 -49 -9 -56 l-8 -13 -49 3 -49 3 -5 55 -5 55 -32 3 -32 3 -9 -18 c-6 -10 -9 -53 -7 -96 l2 -78 12 -12 11 -11 223 3 222 2 13 17 12 16 0 74 c0 40 -5 82 -10 93 l-11 19 -25 0 -24 0 -10 -26z"/> <path d="M5882 6022 l-13 -9 3 -153 3 -153 17 -10 17 -11 25 14 26 13 0 142 0 142 -18 16 c-20 19 -40 21 -60 9z"/> <path d="M5605 6008 c-2 -7 -6 -33 -7 -58 l-3 -45 -194 -3 -194 -2 -14 -11 c-7 -6 -13 -26 -13 -45 l0 -33 18 -9 c9 -4 121 -5 247 -2 l230 5 3 85 c2 47 0 95 -3 108 l-5 22 -31 0 -30 0 -4 -12z"/> <path d="M5880 5510 l-15 -9 0 -156 0 -156 15 -9 c21 -14 43 -12 66 4 l19 14 3 107 c6 175 -24 245 -88 205z"/> <path d="M5870 4974 c-11 -27 -14 -255 -4 -291 l6 -23 39 0 39 0 11 28 11 27 -5 123 -4 122 -18 20 c-10 11 -29 20 -42 20 l-23 0 -10 -26z"/> <path d="M5876 4464 l-16 -15 0 -135 0 -135 10 -20 11 -19 28 0 28 0 16 18 17 18 -3 131 -3 131 -18 21 c-23 25 -49 27 -70 5z"/> <path d="M5869 3939 l-11 -21 4 -143 c1 -79 6 -147 11 -151 11 -12 66 -9 80 5 l12 12 -1 139 0 139 -19 21 c-10 11 -28 20 -41 20 l-23 0 -12 -21z"/> <path d="M5866 3418 c-3 -13 -6 -81 -6 -151 l0 -128 10 -20 11 -19 29 0 30 0 15 23 15 23 -3 127 -3 126 -18 20 -19 21 -27 0 -28 0 -6 -22z"/> <path d="M5880 2910 l-20 -20 0 -138 0 -138 13 -18 13 -18 29 4 30 3 12 25 13 25 -3 122 -3 123 -24 25 c-28 30 -34 31 -60 5z"/> <path d="M5870 2381 l-10 -20 0 -125 c0 -68 4 -136 10 -150 l10 -26 25 0 c14 0 34 9 44 19 l19 19 -2 129 -2 128 -14 23 -15 22 -27 0 -27 0 -11 -19z"/> <path d="M5875 1870 c-3 -5 -5 -57 -4 -115 2 -127 4 -124 -71 -91 -33 15 -85 32 -115 39 l-55 11 -10 -10 c-17 -17 -1 -41 51 -80 68 -49 150 -143 183 -208 15 -30 35 -61 45 -70 l18 -16 54 91 54 90 65 62 c36 34 78 72 93 85 79 65 -94 61 -187 -4 l-20 -13 -12 9 -11 10 5 90 5 90 -18 20 c-19 21 -60 27 -70 10z"/> <path d="M12085 1606 c-22 -8 -119 -21 -215 -31 -96 -9 -204 -21 -240 -27 -36 -6 -114 -14 -175 -18 -60 -4 -144 -12 -185 -18 -77 -12 -244 -28 -428 -41 l-103 -8 -21 -21 -21 -20 7 -17 6 -18 74 5 c40 3 79 9 87 14 8 5 77 15 154 22 355 31 486 46 570 64 28 6 118 13 200 17 l150 7 21 11 c11 7 56 15 100 18 43 4 86 9 94 13 8 3 42 11 74 16 l60 11 4 13 4 12 -60 0 c-33 0 -72 2 -88 5 -16 3 -47 -1 -69 -9z"/> <path d="M2428 15818 l-44 -43 -14 -42 -13 -43 18 -62 c43 -142 146 -258 230 -258 30 0 121 45 128 64 19 49 -27 78 -82 50 l-31 -16 -37 19 -38 18 -26 40 c-31 49 -59 122 -59 156 l0 26 23 20 c12 11 30 23 40 26 l18 7 -3 37 -3 38 -32 3 -31 3 -44 -43z"/> <path d="M4645 15851 c-11 -5 -56 -17 -100 -26 -44 -10 -95 -25 -112 -33 l-33 -14 0 -19 0 -19 23 -9 22 -8 73 8 c160 17 212 35 212 74 0 42 -41 64 -85 46z"/> <path d="M4050 15734 c-36 -7 -82 -16 -103 -19 l-37 -6 -16 -24 -15 -24 11 -20 c6 -12 22 -24 37 -27 l26 -7 51 16 c28 8 80 23 116 33 36 10 73 21 83 26 l17 9 0 23 0 24 -16 6 c-24 9 -82 6 -154 -10z"/> <path d="M2089 15645 c-36 -18 -71 -41 -79 -49 l-13 -17 19 -37 c10 -20 29 -54 42 -75 12 -20 51 -95 87 -166 36 -72 69 -132 75 -136 10 -6 142 57 173 83 22 19 22 34 -2 63 l-18 23 -42 -22 c-23 -12 -49 -22 -59 -22 l-17 0 -22 40 c-31 53 -29 62 14 85 43 23 50 41 29 70 l-14 20 -34 -13 c-18 -8 -41 -16 -50 -19 l-17 -5 -20 33 c-29 47 -27 54 21 81 48 26 58 50 32 79 -22 25 -27 24 -105 -16z"/> <path d="M3515 15639 l-100 -20 -23 -25 -22 -25 11 -20 11 -21 56 5 c31 2 95 10 142 17 l85 12 18 16 c9 8 17 25 17 38 l0 23 -19 11 c-26 14 -58 12 -176 -11z"/> <path d="M1895 15536 l-30 -24 22 -53 c26 -64 73 -207 73 -223 0 -6 -16 7 -36 29 -50 55 -134 166 -134 176 0 12 -57 11 -81 -1 -10 -6 -19 -20 -19 -31 l0 -20 -16 16 -16 16 -22 -7 c-40 -12 -144 -74 -150 -90 l-6 -16 39 -66 c22 -37 68 -123 103 -191 35 -69 71 -129 80 -134 l16 -10 76 38 c42 21 81 43 86 50 l10 13 -10 26 -10 26 -22 0 c-13 0 -36 -9 -53 -20 -16 -11 -35 -20 -42 -20 -14 0 -49 55 -58 90 l-6 26 41 23 41 23 -5 15 c-3 8 -6 19 -6 24 0 15 -59 10 -84 -6 l-23 -15 -16 17 c-8 10 -21 31 -27 47 l-10 28 11 14 c6 8 17 14 23 14 7 0 26 14 43 30 l31 30 58 -63 c33 -34 94 -106 137 -159 43 -54 85 -102 95 -107 l16 -9 26 13 c15 8 31 20 38 27 l11 14 -24 68 c-13 37 -29 89 -35 115 -66 286 -76 304 -135 257z"/> <path d="M3116 15324 l-77 -95 3 -32 3 -32 30 -3 31 -3 74 82 c41 45 81 92 87 105 l13 23 -10 25 -10 26 -33 0 -34 0 -77 -96z"/> <path d="M1350 15254 c-36 -19 -70 -41 -77 -50 l-12 -17 33 -61 c18 -33 56 -101 83 -151 27 -49 61 -114 74 -142 l24 -53 16 0 c49 0 179 81 179 112 l0 18 -24 12 -25 11 -42 -21 -43 -21 -14 11 c-14 12 -52 81 -52 95 0 4 18 18 40 31 l40 23 0 19 c0 11 -9 24 -20 30 l-20 11 -29 -16 c-17 -8 -37 -15 -45 -15 l-16 0 -19 39 -20 38 23 22 c12 11 28 21 34 21 7 0 17 11 23 24 l11 23 -11 22 c-15 28 -33 25 -111 -15z"/> <path d="M1078 15094 c-35 -19 -35 -34 1 -98 66 -115 103 -185 141 -263 l39 -83 21 0 c11 0 53 18 93 39 l72 40 3 21 c2 12 -4 30 -14 41 l-17 19 -48 -27 -48 -26 -13 11 c-8 6 -51 85 -98 176 -88 174 -88 174 -132 150z"/> <path d="M930 15037 c-14 -7 -37 -20 -52 -30 l-27 -19 -17 -43 -16 -43 11 -35 c21 -63 101 -117 174 -117 l34 0 27 -21 26 -20 0 -24 0 -25 -22 -14 c-13 -7 -35 -16 -50 -20 -15 -3 -32 -14 -37 -24 l-10 -18 13 -25 12 -24 35 1 34 1 43 27 44 27 15 37 15 36 -5 40 c-6 45 -31 82 -75 112 l-31 22 -53 6 c-29 4 -61 13 -71 21 l-18 13 3 29 3 28 38 18 37 19 0 27 c0 48 -29 61 -80 38z"/> <path d="M2865 14988 c-21 -24 -65 -71 -97 -106 l-58 -62 0 -30 0 -29 19 -11 c36 -19 50 -11 108 61 108 134 122 154 123 176 l0 22 -19 11 c-30 16 -36 13 -76 -32z"/> <path d="M2563 14618 c-13 -6 -23 -14 -23 -19 0 -4 -33 -47 -74 -96 -40 -49 -77 -99 -81 -112 l-7 -22 18 -20 c34 -38 63 -21 138 79 27 35 59 75 72 89 60 65 30 136 -43 101z"/> <path d="M2230 14202 c-8 -9 -40 -48 -70 -87 -30 -38 -65 -80 -77 -94 -28 -29 -29 -52 -5 -74 31 -28 41 -20 180 136 l52 57 0 28 c0 50 -50 71 -80 34z"/> <path d="M1862 13738 c-26 -34 -61 -78 -78 -98 -35 -40 -46 -64 -38 -85 l6 -15 43 0 43 0 43 58 c24 31 53 68 66 82 13 14 28 40 34 58 l11 33 -12 14 c-7 8 -25 15 -41 15 l-29 0 -48 -62z"/> <path d="M884 13487 c-2 -7 -3 -79 -2 -161 l3 -147 28 -17 28 -17 15 19 14 20 0 146 0 146 -12 12 c-16 16 -67 15 -74 -1z"/> <path d="M1594 13387 c-12 -7 -44 -39 -71 -72 -28 -33 -62 -71 -77 -84 l-26 -24 0 -29 0 -28 24 -15 24 -16 23 6 24 6 49 64 c26 35 57 74 67 86 10 12 21 37 25 55 l6 34 -12 15 c-15 18 -28 18 -56 2z"/> <path d="M984 13025 c-4 -8 1 -33 10 -55 8 -21 18 -81 22 -132 l6 -93 -12 -79 -12 -78 9 -9 10 -10 49 22 c27 11 69 28 94 36 l45 14 123 6 c128 6 145 12 117 43 -21 24 -155 80 -189 80 -41 0 -39 16 8 73 52 64 66 89 66 117 l0 21 -32 -3 -33 -3 -44 -67 -44 -68 -16 0 -16 1 -25 51 c-25 52 -104 148 -121 148 -5 0 -12 -7 -15 -15z"/> <path d="M892 12968 l-12 -12 0 -138 0 -138 20 -20 c22 -22 29 -24 48 -12 l13 9 -3 159 -3 159 -25 3 c-14 2 -31 -3 -38 -10z"/> <path d="M898 12449 l-18 -10 0 -149 0 -149 29 -16 30 -15 15 16 16 15 0 140 0 140 -10 20 c-12 21 -35 24 -62 8z"/> <path d="M887 11933 c-4 -3 -7 -72 -7 -153 l0 -147 18 -16 c25 -22 49 -21 62 2 l10 20 0 135 c0 74 -3 141 -6 150 l-6 16 -32 0 c-18 0 -36 -3 -39 -7z"/> <path d="M891 10886 l-12 -14 3 -143 3 -143 28 -16 28 -15 15 19 14 20 0 127 c0 70 -4 139 -10 153 l-10 26 -24 0 c-13 0 -29 -6 -35 -14z"/> <path d="M887 10374 c-4 -4 -7 -69 -7 -145 l0 -139 27 -6 26 -7 16 10 16 10 0 139 0 139 -35 3 c-20 2 -39 0 -43 -4z"/> </g> </svg>