<?xml version="1.0" encoding="UTF-8"?>
<!DOCTYPE svg PUBLIC "-//W3C//DTD SVG 1.1//EN" "http://www.w3.org/Graphics/SVG/1.1/DTD/svg11.dtd">
<svg xmlns="http://www.w3.org/2000/svg" version="1.1" width="512px" height="512px" style="shape-rendering:geometricPrecision; text-rendering:geometricPrecision; image-rendering:optimizeQuality; fill-rule:evenodd; clip-rule:evenodd" xmlns:xlink="http://www.w3.org/1999/xlink">
<g><path style="opacity:0.99" fill="#000000" d="M 69.5,-0.5 C 74.8333,-0.5 80.1667,-0.5 85.5,-0.5C 104.023,2.09262 120.356,9.59262 134.5,22C 174.68,62.3471 215.014,102.514 255.5,142.5C 295.986,102.514 336.32,62.3471 376.5,22C 390.644,9.59262 406.977,2.09262 425.5,-0.5C 430.833,-0.5 436.167,-0.5 441.5,-0.5C 480.7,6.3661 504.033,29.3661 511.5,68.5C 511.5,75.1667 511.5,81.8333 511.5,88.5C 508.754,104.996 501.921,119.663 491,132.5C 449.986,173.347 409.153,214.347 368.5,255.5C 409.153,296.653 449.986,337.653 491,378.5C 501.918,391.333 508.751,405.999 511.5,422.5C 511.5,429.5 511.5,436.5 511.5,443.5C 504.346,480.82 482.012,502.987 444.5,510C 418.839,512.445 396.172,505.445 376.5,489C 336.32,448.653 295.986,408.486 255.5,368.5C 215.014,408.486 174.68,448.653 134.5,489C 108.977,510.171 80.31,515.838 48.5,506C 18.8337,493.164 2.50035,470.664 -0.5,438.5C -0.5,434.5 -0.5,430.5 -0.5,426.5C 1.16475,408.353 7.99808,392.353 20,378.5C 61.0137,337.653 101.847,296.653 142.5,255.5C 101.847,214.347 61.0137,173.347 20,132.5C 9.08184,119.667 2.2485,105.001 -0.5,88.5C -0.5,81.8333 -0.5,75.1667 -0.5,68.5C 6.96702,29.3661 30.3003,6.3661 69.5,-0.5 Z"/></g>
</svg>
