<?xml version="1.0" encoding="UTF-8"?>
<!DOCTYPE svg PUBLIC "-//W3C//DTD SVG 1.1//EN" "http://www.w3.org/Graphics/SVG/1.1/DTD/svg11.dtd">
<svg xmlns="http://www.w3.org/2000/svg" version="1.1" width="512px" height="512px" style="shape-rendering:geometricPrecision; text-rendering:geometricPrecision; image-rendering:optimizeQuality; fill-rule:evenodd; clip-rule:evenodd" xmlns:xlink="http://www.w3.org/1999/xlink">
<g><path style="opacity:0.983" fill="#000000" d="M 236.5,-0.5 C 251.5,-0.5 266.5,-0.5 281.5,-0.5C 365.376,9.17294 430.876,48.8396 478,118.5C 493.314,142.787 504.481,168.787 511.5,196.5C 511.5,199.833 511.5,203.167 511.5,206.5C 510.038,207.458 508.705,208.624 507.5,210C 405.747,207.874 324.247,247.041 263,327.5C 225.512,381.412 207.845,441.412 210,507.5C 208.624,508.705 207.458,510.038 206.5,511.5C 203.167,511.5 199.833,511.5 196.5,511.5C 116.573,489.44 58.406,441.107 22,366.5C 10.0989,339.554 2.59891,311.554 -0.5,282.5C -0.5,266.833 -0.5,251.167 -0.5,235.5C 9.06905,151.157 49.069,85.6575 119.5,39C 155.553,16.927 194.553,3.7603 236.5,-0.5 Z M 293.5,43.5 C 296.685,43.0196 299.519,43.6863 302,45.5C 321.972,81.7782 341.139,118.445 359.5,155.5C 357.903,162.931 353.403,167.597 346,169.5C 328.75,159.915 311.75,149.915 295,139.5C 295.032,141.598 295.699,143.598 297,145.5C 305.918,159.667 314.585,174 323,188.5C 323.312,197.541 318.979,203.208 310,205.5C 273.453,186.476 236.953,167.309 200.5,148C 198.643,146.818 197.643,145.151 197.5,143C 198.233,138.276 200.566,134.609 204.5,132C 205.833,131.333 207.167,131.333 208.5,132C 239.414,149.04 270.247,166.207 301,183.5C 300.626,180.725 299.626,178.058 298,175.5C 287.123,158.249 276.623,140.749 266.5,123C 268.285,116.202 272.618,112.869 279.5,113C 298.915,124.123 318.082,135.623 337,147.5C 337.52,145.711 337.187,144.044 336,142.5C 319.167,112.333 302.333,82.1667 285.5,52C 287.021,47.9823 289.687,45.149 293.5,43.5 Z M 180.5,154.5 C 186.716,154.115 190.716,156.948 192.5,163C 192.138,164.225 191.638,165.391 191,166.5C 178.319,179.014 165.819,191.681 153.5,204.5C 162.833,214.5 172.5,224.167 182.5,233.5C 189.683,226.483 197.016,219.65 204.5,213C 210.999,213.501 213.832,217.001 213,223.5C 206.167,230.333 199.333,237.167 192.5,244C 202.167,253.667 211.833,263.333 221.5,273C 222.167,273.667 222.833,273.667 223.5,273C 236.167,260.333 248.833,247.667 261.5,235C 266.462,234.601 269.962,236.768 272,241.5C 272.667,242.833 272.667,244.167 272,245.5C 255.805,262.029 239.305,278.196 222.5,294C 220.833,294.667 219.167,294.667 217.5,294C 189.333,265.833 161.167,237.667 133,209.5C 132.245,206.697 132.578,204.03 134,201.5C 149.702,185.965 165.202,170.299 180.5,154.5 Z M 104.5,231.5 C 106.989,231.298 109.323,231.798 111.5,233C 139,260.5 166.5,288 194,315.5C 196,318.167 196,320.833 194,323.5C 190.491,328.838 185.658,330.672 179.5,329C 150.447,319.987 121.447,310.82 92.5,301.5C 91.479,302.002 91.3123,302.668 92,303.5C 111.333,322.833 130.667,342.167 150,361.5C 150.161,368.357 146.828,372.691 140,374.5C 138.775,374.138 137.609,373.638 136.5,373C 108.305,345.139 80.4718,316.972 53,288.5C 53.0647,280.761 57.0647,276.428 65,275.5C 94.8398,284.224 124.506,293.557 154,303.5C 154.5,303.167 155,302.833 155.5,302.5C 136.514,283.014 117.347,263.68 98,244.5C 96.3461,241.725 96.6794,239.058 99,236.5C 100.73,234.598 102.563,232.931 104.5,231.5 Z"/></g>
<g><path style="opacity:0.977" fill="#000000" d="M 476.5,230.5 C 484.174,230.334 491.841,230.5 499.5,231C 506.878,235.142 508.045,240.642 503,247.5C 417.833,332.667 332.667,417.833 247.5,503C 242.939,506.66 238.272,506.993 233.5,504C 232.54,502.581 231.707,501.081 231,499.5C 230.389,400.239 271.222,323.406 353.5,269C 391.459,246.179 432.459,233.346 476.5,230.5 Z"/></g>
</svg>
